<mxfile host="Electron" modified="2023-06-20T20:37:29.376Z" agent="Mozilla/5.0 (Windows NT 10.0; Win64; x64) AppleWebKit/537.36 (KHTML, like Gecko) draw.io/21.4.0 Chrome/112.0.5615.204 Electron/24.5.1 Safari/537.36" etag="JAnce4y-fQvVUS4-Ariz" version="21.4.0" type="device">
  <diagram id="C5RBs43oDa-KdzZeNtuy" name="Page-1">
    <mxGraphModel dx="2282" dy="1907" grid="1" gridSize="10" guides="1" tooltips="1" connect="1" arrows="1" fold="1" page="1" pageScale="1" pageWidth="850" pageHeight="1100" math="0" shadow="0">
      <root>
        <mxCell id="WIyWlLk6GJQsqaUBKTNV-0" />
        <mxCell id="WIyWlLk6GJQsqaUBKTNV-1" parent="WIyWlLk6GJQsqaUBKTNV-0" />
        <mxCell id="6NU6iWtaKqasOhbTZYST-0" value="ZmqAddress" style="swimlane;fontStyle=1;align=center;verticalAlign=top;childLayout=stackLayout;horizontal=1;startSize=20;horizontalStack=0;resizeParent=1;resizeParentMax=0;resizeLast=0;collapsible=1;marginBottom=0;whiteSpace=wrap;html=1;" parent="WIyWlLk6GJQsqaUBKTNV-1" vertex="1">
          <mxGeometry x="40" y="40" width="160" height="350" as="geometry" />
        </mxCell>
        <mxCell id="6NU6iWtaKqasOhbTZYST-1" value="protocol: ZmqTransport&lt;br&gt;family: i32&lt;br&gt;ip-addr: IpAddr&lt;br&gt;addr_sockaddr: SocketAddr&lt;br&gt;src_addr: SocketAddr&lt;br&gt;bind_addr: SocketAddr&lt;br&gt;tgt_addr: SocketAddr&lt;br&gt;bind_interface: i32&lt;br&gt;is_multicast: bool&lt;br&gt;has_src_addr: bool&lt;br&gt;addr_str: String&lt;br&gt;tipc_sockaddr: sockaddr_tipc&lt;br&gt;vm_sockaddr: sockaddr_vm&lt;br&gt;host: String&lt;br&gt;path: String" style="text;strokeColor=none;fillColor=none;align=left;verticalAlign=top;spacingLeft=4;spacingRight=4;overflow=hidden;rotatable=0;points=[[0,0.5],[1,0.5]];portConstraint=eastwest;whiteSpace=wrap;html=1;" parent="6NU6iWtaKqasOhbTZYST-0" vertex="1">
          <mxGeometry y="20" width="160" height="250" as="geometry" />
        </mxCell>
        <mxCell id="6NU6iWtaKqasOhbTZYST-2" value="" style="line;strokeWidth=1;fillColor=none;align=left;verticalAlign=middle;spacingTop=-1;spacingLeft=3;spacingRight=3;rotatable=0;labelPosition=right;points=[];portConstraint=eastwest;strokeColor=inherit;" parent="6NU6iWtaKqasOhbTZYST-0" vertex="1">
          <mxGeometry y="270" width="160" height="8" as="geometry" />
        </mxCell>
        <mxCell id="6NU6iWtaKqasOhbTZYST-3" value="is_service()&lt;br&gt;new()&lt;br&gt;resolve()&amp;nbsp;&lt;br&gt;to_string" style="text;strokeColor=none;fillColor=none;align=left;verticalAlign=top;spacingLeft=4;spacingRight=4;overflow=hidden;rotatable=0;points=[[0,0.5],[1,0.5]];portConstraint=eastwest;whiteSpace=wrap;html=1;" parent="6NU6iWtaKqasOhbTZYST-0" vertex="1">
          <mxGeometry y="278" width="160" height="72" as="geometry" />
        </mxCell>
        <mxCell id="6NU6iWtaKqasOhbTZYST-4" value="ZmqChannel" style="swimlane;fontStyle=1;align=center;verticalAlign=top;childLayout=stackLayout;horizontal=1;startSize=26;horizontalStack=0;resizeParent=1;resizeParentMax=0;resizeLast=0;collapsible=1;marginBottom=0;whiteSpace=wrap;html=1;" parent="WIyWlLk6GJQsqaUBKTNV-1" vertex="1">
          <mxGeometry x="320" y="640" width="160" height="190" as="geometry" />
        </mxCell>
        <mxCell id="6NU6iWtaKqasOhbTZYST-5" value="pipe: Option&amp;lt;ZmqPipe&amp;gt;&lt;br&gt;base: &amp;amp;mut ZmqSocket" style="text;strokeColor=none;fillColor=none;align=left;verticalAlign=top;spacingLeft=4;spacingRight=4;overflow=hidden;rotatable=0;points=[[0,0.5],[1,0.5]];portConstraint=eastwest;whiteSpace=wrap;html=1;" parent="6NU6iWtaKqasOhbTZYST-4" vertex="1">
          <mxGeometry y="26" width="160" height="44" as="geometry" />
        </mxCell>
        <mxCell id="6NU6iWtaKqasOhbTZYST-6" value="" style="line;strokeWidth=1;fillColor=none;align=left;verticalAlign=middle;spacingTop=-1;spacingLeft=3;spacingRight=3;rotatable=0;labelPosition=right;points=[];portConstraint=eastwest;strokeColor=inherit;" parent="6NU6iWtaKqasOhbTZYST-4" vertex="1">
          <mxGeometry y="70" width="160" height="8" as="geometry" />
        </mxCell>
        <mxCell id="6NU6iWtaKqasOhbTZYST-7" value="xattach_pipe()&lt;br&gt;xhas_in()&lt;br&gt;xhas_out()&lt;br&gt;xpipe_terminated()&lt;br&gt;xrecv()&lt;br&gt;xsend()&lt;br&gt;xwrite_activated()" style="text;strokeColor=none;fillColor=none;align=left;verticalAlign=top;spacingLeft=4;spacingRight=4;overflow=hidden;rotatable=0;points=[[0,0.5],[1,0.5]];portConstraint=eastwest;whiteSpace=wrap;html=1;" parent="6NU6iWtaKqasOhbTZYST-4" vertex="1">
          <mxGeometry y="78" width="160" height="112" as="geometry" />
        </mxCell>
        <mxCell id="6NU6iWtaKqasOhbTZYST-8" value="ZmqClient" style="swimlane;fontStyle=1;align=center;verticalAlign=top;childLayout=stackLayout;horizontal=1;startSize=26;horizontalStack=0;resizeParent=1;resizeParentMax=0;resizeLast=0;collapsible=1;marginBottom=0;whiteSpace=wrap;html=1;" parent="WIyWlLk6GJQsqaUBKTNV-1" vertex="1">
          <mxGeometry x="320" y="40" width="160" height="220" as="geometry" />
        </mxCell>
        <mxCell id="6NU6iWtaKqasOhbTZYST-9" value="base: &amp;amp;mut ZmqSocket&lt;br&gt;fq: ZmqFq&lt;br&gt;lb: LoadBalancer&lt;br&gt;" style="text;strokeColor=none;fillColor=none;align=left;verticalAlign=top;spacingLeft=4;spacingRight=4;overflow=hidden;rotatable=0;points=[[0,0.5],[1,0.5]];portConstraint=eastwest;whiteSpace=wrap;html=1;" parent="6NU6iWtaKqasOhbTZYST-8" vertex="1">
          <mxGeometry y="26" width="160" height="54" as="geometry" />
        </mxCell>
        <mxCell id="6NU6iWtaKqasOhbTZYST-10" value="" style="line;strokeWidth=1;fillColor=none;align=left;verticalAlign=middle;spacingTop=-1;spacingLeft=3;spacingRight=3;rotatable=0;labelPosition=right;points=[];portConstraint=eastwest;strokeColor=inherit;" parent="6NU6iWtaKqasOhbTZYST-8" vertex="1">
          <mxGeometry y="80" width="160" height="8" as="geometry" />
        </mxCell>
        <mxCell id="6NU6iWtaKqasOhbTZYST-11" value="xattach_pipe()&lt;br&gt;xhas_in()&lt;br&gt;xhas_out()&lt;br&gt;xpipe_terminated()&lt;br&gt;xread_activated()&lt;br&gt;xrecv()&lt;br&gt;xsend()&lt;br&gt;xwrite_activated()" style="text;strokeColor=none;fillColor=none;align=left;verticalAlign=top;spacingLeft=4;spacingRight=4;overflow=hidden;rotatable=0;points=[[0,0.5],[1,0.5]];portConstraint=eastwest;whiteSpace=wrap;html=1;" parent="6NU6iWtaKqasOhbTZYST-8" vertex="1">
          <mxGeometry y="88" width="160" height="132" as="geometry" />
        </mxCell>
        <mxCell id="6NU6iWtaKqasOhbTZYST-12" value="ZmqCommand" style="swimlane;fontStyle=1;align=center;verticalAlign=top;childLayout=stackLayout;horizontal=1;startSize=26;horizontalStack=0;resizeParent=1;resizeParentMax=0;resizeLast=0;collapsible=1;marginBottom=0;whiteSpace=wrap;html=1;" parent="WIyWlLk6GJQsqaUBKTNV-1" vertex="1">
          <mxGeometry x="40" y="440" width="200" height="258" as="geometry" />
        </mxCell>
        <mxCell id="6NU6iWtaKqasOhbTZYST-13" value="cmd_type: CommandType&lt;br&gt;destination: ZmqAddress&lt;br&gt;endpoint: String&lt;br&gt;endpoint_pair: EndpointUriPair&lt;br&gt;inbound_queue_count: u64&lt;br&gt;inhwm: i32&lt;br&gt;linger: i32&lt;br&gt;msgs_read: u64&lt;br&gt;object: Option&amp;lt;ZmqOwn&amp;gt;&lt;br&gt;outbound_queue_count: u64&lt;br&gt;outhwm: i32&lt;br&gt;pipe: Option&amp;lt;ZmqPipe&amp;gt;&lt;br&gt;queue_count: u64&lt;br&gt;socket: Option&amp;lt;&amp;amp;mut ZmqSocket&amp;gt;&lt;br&gt;socket_base: Option&amp;lt;ZmqOwn&amp;gt;" style="text;strokeColor=none;fillColor=none;align=left;verticalAlign=top;spacingLeft=4;spacingRight=4;overflow=hidden;rotatable=0;points=[[0,0.5],[1,0.5]];portConstraint=eastwest;whiteSpace=wrap;html=1;" parent="6NU6iWtaKqasOhbTZYST-12" vertex="1">
          <mxGeometry y="26" width="200" height="224" as="geometry" />
        </mxCell>
        <mxCell id="6NU6iWtaKqasOhbTZYST-14" value="" style="line;strokeWidth=1;fillColor=none;align=left;verticalAlign=middle;spacingTop=-1;spacingLeft=3;spacingRight=3;rotatable=0;labelPosition=right;points=[];portConstraint=eastwest;strokeColor=inherit;" parent="6NU6iWtaKqasOhbTZYST-12" vertex="1">
          <mxGeometry y="250" width="200" height="8" as="geometry" />
        </mxCell>
        <mxCell id="6NU6iWtaKqasOhbTZYST-16" value="ZmqContext" style="swimlane;fontStyle=1;align=center;verticalAlign=top;childLayout=stackLayout;horizontal=1;startSize=26;horizontalStack=0;resizeParent=1;resizeParentMax=0;resizeLast=0;collapsible=1;marginBottom=0;whiteSpace=wrap;html=1;" parent="WIyWlLk6GJQsqaUBKTNV-1" vertex="1">
          <mxGeometry x="-300" y="40" width="260" height="2160" as="geometry" />
        </mxCell>
        <mxCell id="6NU6iWtaKqasOhbTZYST-17" value="affinity: u64&lt;br&gt;app_metadata: HashMap&amp;lt;String, String&amp;gt;&lt;br&gt;as_server: i32&lt;br&gt;backlog: i32&lt;br&gt;blocky:bool&lt;br&gt;bound_device: String&lt;br&gt;busy_poll: i32&lt;br&gt;can_recv_disconnect_msg: bool&lt;br&gt;can_recv_hiccup_msg: bool&lt;br&gt;can_send_hello_msg: bool&lt;br&gt;conflate: bool&lt;br&gt;connect_timeout: u32&lt;br&gt;connected: bool&lt;br&gt;curve_public_key: Vec&amp;lt;u8&amp;gt;&lt;br&gt;curve_secret_key: Vec&amp;lt;u8&amp;gt;&lt;br&gt;curve_server_key: Vec&amp;lt;u8&amp;gt;&lt;br&gt;disconnect_msg: Vec&amp;lt;u8&amp;gt;&lt;br&gt;empty_slots: Vec&amp;lt;u32&amp;gt;&lt;br&gt;endpoints: HashMap&amp;lt;String,ZmqEndpoint&amp;gt;&lt;br&gt;endpoint_sync: Mutex&amp;lt;u8&amp;gt;&lt;br&gt;filter: bool&lt;br&gt;gss_plaintext: bool&lt;br&gt;gss_principal: String&lt;br&gt;gss_principal_nt: i32&lt;br&gt;gss_service_principal: String&lt;br&gt;gss_service_principal_nt: i32&lt;br&gt;handshake_ivl: i32&lt;br&gt;heartbeat:_interval: i32&lt;br&gt;heartbeat_timeout: i32&lt;br&gt;heartbeat_ttl: u16&lt;br&gt;hello_msg: Vec&amp;lt;u8&amp;gt;&lt;br&gt;hiccup_msg: Vec&amp;lt;u8&amp;gt;&lt;br&gt;immediate: i32&lt;br&gt;in_batch_size: i32&lt;br&gt;invert_matching: bool&lt;br&gt;io_thread_count: i32&lt;br&gt;ipv6: bool&lt;br&gt;linger: AtomicU64&lt;br&gt;loopback_fastpath: bool&lt;br&gt;max_msg_sz: i32&lt;br&gt;max_socket_id: AtomicU64&lt;br&gt;max_sockets: i32&lt;br&gt;maxmsgsize: i64&lt;br&gt;mechanism: i32&lt;br&gt;monitor_event_version: i32&lt;br&gt;multicat_hops: i32&lt;br&gt;multicast_loop: bool&lt;br&gt;multicast_maxtpdu: i32&lt;br&gt;out_batch_size: i32&lt;br&gt;pending_connections: HashMap&amp;lt;String,PendingConnection&amp;gt;&lt;br&gt;pid: u32&lt;br&gt;plain_password: String&lt;br&gt;plain_username: String&lt;br&gt;priority: i32&lt;br&gt;rate: i32&lt;br&gt;raw_notify: bool&lt;br&gt;raw_socket: bool&lt;br&gt;rcvbuf: i32&lt;br&gt;rcvhwm: i32&lt;br&gt;rcvtimeo: i32&lt;br&gt;reaper: Option&amp;lt;ZmqReaper&amp;gt;&lt;br&gt;reconnect_ivl: i32&lt;br&gt;reconnect_ivl_max: i32&lt;br&gt;recovery_ivl: i32&lt;br&gt;recv_routing_id: bool&lt;br&gt;router_notify: i32&lt;br&gt;routing_id: String&lt;br&gt;slot_sync: Mutex&amp;lt;u8&amp;gt;&lt;br&gt;sndbuf: i32&lt;br&gt;sndhwm: i32&lt;br&gt;sndtimeo: i32&lt;br&gt;socket_id: i32&lt;br&gt;sockets: Vec&amp;lt;ZmqSocket&amp;gt;&lt;br&gt;socks_proxy_address: String&lt;br&gt;socks_proxy_password: String&lt;br&gt;socks_proxy_username: String&lt;br&gt;starting: bool&lt;br&gt;tag: u32&lt;br&gt;tcp_accept_filters: Vec&amp;lt;ZmqAddress&amp;gt;&lt;br&gt;tcp_keepalive: i32&lt;br&gt;tcp_keepalive_cnt: i32&lt;br&gt;tcp_keepalive_idle: i32&lt;br&gt;tcp_keepalive_intvl: i32&lt;br&gt;tcp_maxrt: i32&lt;br&gt;term_mailbox: ZmqMailbox&lt;br&gt;terminating: bool&lt;br&gt;thread_ctx: ZmqThreadContext&lt;br&gt;threads: Vec&amp;lt;ZmqThreadContext&amp;gt;&lt;br&gt;tos: i32&lt;br&gt;type_: i32&lt;br&gt;use_fd: i32&lt;br&gt;wss_cert_pem: String&lt;br&gt;wss_hostname: String&lt;br&gt;wss_key_pem: String&lt;br&gt;wss_trust_pem: String&lt;br&gt;wss_trust_system: String&lt;br&gt;zap_domain: String&lt;br&gt;zap_endorce_domain: bool&lt;br&gt;zero_copy: bool" style="text;strokeColor=none;fillColor=none;align=left;verticalAlign=top;spacingLeft=4;spacingRight=4;overflow=hidden;rotatable=0;points=[[0,0.5],[1,0.5]];portConstraint=eastwest;whiteSpace=wrap;html=1;" parent="6NU6iWtaKqasOhbTZYST-16" vertex="1">
          <mxGeometry y="26" width="260" height="1454" as="geometry" />
        </mxCell>
        <mxCell id="6NU6iWtaKqasOhbTZYST-18" value="" style="line;strokeWidth=1;fillColor=none;align=left;verticalAlign=middle;spacingTop=-1;spacingLeft=3;spacingRight=3;rotatable=0;labelPosition=right;points=[];portConstraint=eastwest;strokeColor=inherit;" parent="6NU6iWtaKqasOhbTZYST-16" vertex="1">
          <mxGeometry y="1480" width="260" height="8" as="geometry" />
        </mxCell>
        <mxCell id="6NU6iWtaKqasOhbTZYST-19" value="check_tag()&lt;br&gt;choose_io_thread()&lt;br&gt;connect_inproc_sockets()&lt;br&gt;connect_pending()&lt;br&gt;create_socket()&lt;br&gt;destroy_socket()&lt;br&gt;find_endpoint()&lt;br&gt;get_reaper()&lt;br&gt;getsockopt()&lt;br&gt;new()&lt;br&gt;option_bytes()&lt;br&gt;option_i32()&lt;br&gt;pend_connection()&lt;br&gt;register_endpoint()&lt;br&gt;send_activate_read()&lt;br&gt;send_activate_write()&lt;br&gt;send_attach()&lt;br&gt;send_bind()&lt;br&gt;send_command()&lt;br&gt;send_conn_failed()&lt;br&gt;send_done()&lt;br&gt;send_hiccup()&lt;br&gt;send_inproc_connected()&lt;br&gt;send_own()&lt;br&gt;send_pipe_hwm()&lt;br&gt;send_pipe_peer_stats()&lt;br&gt;send_pipe_stats_publish()&lt;br&gt;send_pipe_term()&lt;br&gt;send_pipe_term_ack()&lt;br&gt;send_plug()&lt;br&gt;send_reap()&lt;br&gt;send_reaped()&lt;br&gt;send_stop()&lt;br&gt;send_term()&lt;br&gt;send_term_ack()&lt;br&gt;send_term_endpoint()&lt;br&gt;send_term_req&lt;br&gt;set()&lt;br&gt;set_curve_key()&lt;br&gt;setsockopt()&lt;br&gt;shutdown()&lt;br&gt;start()&lt;br&gt;terminate()&lt;br&gt;unregister_endpoint()&lt;br&gt;unregister_endpoints()&lt;br&gt;valid()" style="text;strokeColor=none;fillColor=none;align=left;verticalAlign=top;spacingLeft=4;spacingRight=4;overflow=hidden;rotatable=0;points=[[0,0.5],[1,0.5]];portConstraint=eastwest;whiteSpace=wrap;html=1;" parent="6NU6iWtaKqasOhbTZYST-16" vertex="1">
          <mxGeometry y="1488" width="260" height="672" as="geometry" />
        </mxCell>
        <mxCell id="6NU6iWtaKqasOhbTZYST-20" value="ZmqCurveClient" style="swimlane;fontStyle=1;align=center;verticalAlign=top;childLayout=stackLayout;horizontal=1;startSize=26;horizontalStack=0;resizeParent=1;resizeParentMax=0;resizeLast=0;collapsible=1;marginBottom=0;whiteSpace=wrap;html=1;" parent="WIyWlLk6GJQsqaUBKTNV-1" vertex="1">
          <mxGeometry x="680" y="43" width="300" height="280" as="geometry" />
        </mxCell>
        <mxCell id="6NU6iWtaKqasOhbTZYST-21" value="curve_mechanism_base: ZmqCurveMechanismBase&lt;br&gt;mechanism_base: ZmqMechanismBase&lt;br&gt;state: ZmqCurveClientState&lt;br&gt;tools: ZmqCurveClientTools" style="text;strokeColor=none;fillColor=none;align=left;verticalAlign=top;spacingLeft=4;spacingRight=4;overflow=hidden;rotatable=0;points=[[0,0.5],[1,0.5]];portConstraint=eastwest;whiteSpace=wrap;html=1;" parent="6NU6iWtaKqasOhbTZYST-20" vertex="1">
          <mxGeometry y="26" width="300" height="74" as="geometry" />
        </mxCell>
        <mxCell id="6NU6iWtaKqasOhbTZYST-22" value="" style="line;strokeWidth=1;fillColor=none;align=left;verticalAlign=middle;spacingTop=-1;spacingLeft=3;spacingRight=3;rotatable=0;labelPosition=right;points=[];portConstraint=eastwest;strokeColor=inherit;" parent="6NU6iWtaKqasOhbTZYST-20" vertex="1">
          <mxGeometry y="100" width="300" height="8" as="geometry" />
        </mxCell>
        <mxCell id="6NU6iWtaKqasOhbTZYST-23" value="decode()&lt;br&gt;encode()&lt;br&gt;new()&lt;br&gt;next_handshake_command()&lt;br&gt;process_error()&lt;br&gt;process_handshake_command()&lt;br&gt;process_ready()&lt;br&gt;process_welcome()&lt;br&gt;produce_hello()&lt;br&gt;produce_initiate()&lt;br&gt;status()" style="text;strokeColor=none;fillColor=none;align=left;verticalAlign=top;spacingLeft=4;spacingRight=4;overflow=hidden;rotatable=0;points=[[0,0.5],[1,0.5]];portConstraint=eastwest;whiteSpace=wrap;html=1;" parent="6NU6iWtaKqasOhbTZYST-20" vertex="1">
          <mxGeometry y="108" width="300" height="172" as="geometry" />
        </mxCell>
        <mxCell id="6NU6iWtaKqasOhbTZYST-24" value="ZmqCurveClientTools" style="swimlane;fontStyle=1;align=center;verticalAlign=top;childLayout=stackLayout;horizontal=1;startSize=26;horizontalStack=0;resizeParent=1;resizeParentMax=0;resizeLast=0;collapsible=1;marginBottom=0;whiteSpace=wrap;html=1;" parent="WIyWlLk6GJQsqaUBKTNV-1" vertex="1">
          <mxGeometry x="1040" y="50" width="210" height="130" as="geometry" />
        </mxCell>
        <mxCell id="6NU6iWtaKqasOhbTZYST-26" value="" style="line;strokeWidth=1;fillColor=none;align=left;verticalAlign=middle;spacingTop=-1;spacingLeft=3;spacingRight=3;rotatable=0;labelPosition=right;points=[];portConstraint=eastwest;strokeColor=inherit;" parent="6NU6iWtaKqasOhbTZYST-24" vertex="1">
          <mxGeometry y="26" width="210" height="8" as="geometry" />
        </mxCell>
        <mxCell id="6NU6iWtaKqasOhbTZYST-27" value="is_handshake_command()&lt;br&gt;is_handshake_command_error()&lt;br&gt;is_handshake_command_ready()&lt;br&gt;is_handshake_command_welcome()&lt;br&gt;proces_welcome()&lt;br&gt;produce_initiate()" style="text;strokeColor=none;fillColor=none;align=left;verticalAlign=top;spacingLeft=4;spacingRight=4;overflow=hidden;rotatable=0;points=[[0,0.5],[1,0.5]];portConstraint=eastwest;whiteSpace=wrap;html=1;" parent="6NU6iWtaKqasOhbTZYST-24" vertex="1">
          <mxGeometry y="34" width="210" height="96" as="geometry" />
        </mxCell>
        <mxCell id="6NU6iWtaKqasOhbTZYST-28" style="edgeStyle=orthogonalEdgeStyle;rounded=0;orthogonalLoop=1;jettySize=auto;html=1;exitX=1;exitY=0.5;exitDx=0;exitDy=0;" parent="WIyWlLk6GJQsqaUBKTNV-1" source="6NU6iWtaKqasOhbTZYST-21" target="6NU6iWtaKqasOhbTZYST-27" edge="1">
          <mxGeometry relative="1" as="geometry" />
        </mxCell>
        <mxCell id="6NU6iWtaKqasOhbTZYST-29" value="ZmqCurveEncoding" style="swimlane;fontStyle=1;align=center;verticalAlign=top;childLayout=stackLayout;horizontal=1;startSize=26;horizontalStack=0;resizeParent=1;resizeParentMax=0;resizeLast=0;collapsible=1;marginBottom=0;whiteSpace=wrap;html=1;" parent="WIyWlLk6GJQsqaUBKTNV-1" vertex="1">
          <mxGeometry x="680" y="698" width="190" height="270" as="geometry" />
        </mxCell>
        <mxCell id="6NU6iWtaKqasOhbTZYST-30" value="cn_nonce: ZmqNonce&lt;br&gt;cn_peer_nonce: ZmqNonce&lt;br&gt;cn_precom: Vec&amp;lt;u8&amp;gt;&lt;br&gt;decode_nonce_prefix: Vec&amp;lt;u8&amp;gt;&lt;br&gt;downgrade_sub: bool&lt;br&gt;encode_nonce_prefix: Vec&amp;lt;u8&amp;gt;" style="text;strokeColor=none;fillColor=none;align=left;verticalAlign=top;spacingLeft=4;spacingRight=4;overflow=hidden;rotatable=0;points=[[0,0.5],[1,0.5]];portConstraint=eastwest;whiteSpace=wrap;html=1;" parent="6NU6iWtaKqasOhbTZYST-29" vertex="1">
          <mxGeometry y="26" width="190" height="104" as="geometry" />
        </mxCell>
        <mxCell id="6NU6iWtaKqasOhbTZYST-31" value="" style="line;strokeWidth=1;fillColor=none;align=left;verticalAlign=middle;spacingTop=-1;spacingLeft=3;spacingRight=3;rotatable=0;labelPosition=right;points=[];portConstraint=eastwest;strokeColor=inherit;" parent="6NU6iWtaKqasOhbTZYST-29" vertex="1">
          <mxGeometry y="130" width="190" height="8" as="geometry" />
        </mxCell>
        <mxCell id="6NU6iWtaKqasOhbTZYST-32" value="check_validity()&lt;br&gt;decode()&lt;br&gt;encode()&lt;br&gt;get_and_inc_nonce()&lt;br&gt;get_precom_buffer()&lt;br&gt;get_writable_precom_buffer()&lt;br&gt;new()&lt;br&gt;set_peer_nonce()" style="text;strokeColor=none;fillColor=none;align=left;verticalAlign=top;spacingLeft=4;spacingRight=4;overflow=hidden;rotatable=0;points=[[0,0.5],[1,0.5]];portConstraint=eastwest;whiteSpace=wrap;html=1;" parent="6NU6iWtaKqasOhbTZYST-29" vertex="1">
          <mxGeometry y="138" width="190" height="132" as="geometry" />
        </mxCell>
        <mxCell id="6NU6iWtaKqasOhbTZYST-33" value="ZmqCurveServer" style="swimlane;fontStyle=1;align=center;verticalAlign=top;childLayout=stackLayout;horizontal=1;startSize=26;horizontalStack=0;resizeParent=1;resizeParentMax=0;resizeLast=0;collapsible=1;marginBottom=0;whiteSpace=wrap;html=1;" parent="WIyWlLk6GJQsqaUBKTNV-1" vertex="1">
          <mxGeometry x="680" y="360" width="390" height="320" as="geometry" />
        </mxCell>
        <mxCell id="6NU6iWtaKqasOhbTZYST-34" value="cookie_key: [u8]&lt;br&gt;secret_key: [u8]&lt;br&gt;cn_client: [u8[&lt;br&gt;cn_public: [u8]&lt;br&gt;cn_secret: [u8]&lt;br&gt;curve_mechanism_base: ZmqCurveMechanismBase&lt;br&gt;zap_client_common_handshake: ZmqZapClientCommonHandshake" style="text;strokeColor=none;fillColor=none;align=left;verticalAlign=top;spacingLeft=4;spacingRight=4;overflow=hidden;rotatable=0;points=[[0,0.5],[1,0.5]];portConstraint=eastwest;whiteSpace=wrap;html=1;" parent="6NU6iWtaKqasOhbTZYST-33" vertex="1">
          <mxGeometry y="26" width="390" height="114" as="geometry" />
        </mxCell>
        <mxCell id="6NU6iWtaKqasOhbTZYST-35" value="" style="line;strokeWidth=1;fillColor=none;align=left;verticalAlign=middle;spacingTop=-1;spacingLeft=3;spacingRight=3;rotatable=0;labelPosition=right;points=[];portConstraint=eastwest;strokeColor=inherit;" parent="6NU6iWtaKqasOhbTZYST-33" vertex="1">
          <mxGeometry y="140" width="390" height="8" as="geometry" />
        </mxCell>
        <mxCell id="6NU6iWtaKqasOhbTZYST-36" value="decode()&lt;br&gt;encode()&lt;br&gt;new()&lt;br&gt;next_handshake_command()&lt;br&gt;process_handshake_command()&lt;br&gt;process_hello()&lt;br&gt;process_initiate()&lt;br&gt;produce_error()&lt;br&gt;produce_ready()&lt;br&gt;produce_welcome()&lt;br&gt;send_zap_request()" style="text;strokeColor=none;fillColor=none;align=left;verticalAlign=top;spacingLeft=4;spacingRight=4;overflow=hidden;rotatable=0;points=[[0,0.5],[1,0.5]];portConstraint=eastwest;whiteSpace=wrap;html=1;" parent="6NU6iWtaKqasOhbTZYST-33" vertex="1">
          <mxGeometry y="148" width="390" height="172" as="geometry" />
        </mxCell>
        <mxCell id="6NU6iWtaKqasOhbTZYST-37" value="ZmqDealer" style="swimlane;fontStyle=1;align=center;verticalAlign=top;childLayout=stackLayout;horizontal=1;startSize=26;horizontalStack=0;resizeParent=1;resizeParentMax=0;resizeLast=0;collapsible=1;marginBottom=0;whiteSpace=wrap;html=1;" parent="WIyWlLk6GJQsqaUBKTNV-1" vertex="1">
          <mxGeometry x="320" y="290" width="170" height="310" as="geometry" />
        </mxCell>
        <mxCell id="6NU6iWtaKqasOhbTZYST-38" value="fair_queue: VecDeque&amp;lt;ZmqMessage&amp;gt;&lt;br&gt;load_balance: LoadBalancer&lt;br&gt;probe_router: bool&lt;br&gt;socket_base: ZmqSocket" style="text;strokeColor=none;fillColor=none;align=left;verticalAlign=top;spacingLeft=4;spacingRight=4;overflow=hidden;rotatable=0;points=[[0,0.5],[1,0.5]];portConstraint=eastwest;whiteSpace=wrap;html=1;" parent="6NU6iWtaKqasOhbTZYST-37" vertex="1">
          <mxGeometry y="26" width="170" height="84" as="geometry" />
        </mxCell>
        <mxCell id="6NU6iWtaKqasOhbTZYST-39" value="" style="line;strokeWidth=1;fillColor=none;align=left;verticalAlign=middle;spacingTop=-1;spacingLeft=3;spacingRight=3;rotatable=0;labelPosition=right;points=[];portConstraint=eastwest;strokeColor=inherit;" parent="6NU6iWtaKqasOhbTZYST-37" vertex="1">
          <mxGeometry y="110" width="170" height="8" as="geometry" />
        </mxCell>
        <mxCell id="6NU6iWtaKqasOhbTZYST-40" value="new()&lt;br&gt;recvpipe()&lt;br&gt;sendpipe()&lt;br&gt;xattach_pipe()&lt;br&gt;xhas_in()&lt;br&gt;xhas_out()&lt;br&gt;xpipe_terminated()&lt;br&gt;xread_activated()&lt;br&gt;xrecv()&lt;br&gt;xsend()&lt;br&gt;xsetsockopt()&lt;br&gt;xwrite_activated()" style="text;strokeColor=none;fillColor=none;align=left;verticalAlign=top;spacingLeft=4;spacingRight=4;overflow=hidden;rotatable=0;points=[[0,0.5],[1,0.5]];portConstraint=eastwest;whiteSpace=wrap;html=1;" parent="6NU6iWtaKqasOhbTZYST-37" vertex="1">
          <mxGeometry y="118" width="170" height="192" as="geometry" />
        </mxCell>
        <mxCell id="6NU6iWtaKqasOhbTZYST-41" value="Decoder" style="swimlane;fontStyle=1;align=center;verticalAlign=top;childLayout=stackLayout;horizontal=1;startSize=26;horizontalStack=0;resizeParent=1;resizeParentMax=0;resizeLast=0;collapsible=1;marginBottom=0;whiteSpace=wrap;html=1;" parent="WIyWlLk6GJQsqaUBKTNV-1" vertex="1">
          <mxGeometry x="1360" y="40" width="160" height="190" as="geometry" />
        </mxCell>
        <mxCell id="6NU6iWtaKqasOhbTZYST-42" value="buf: Vec&amp;lt;u8&amp;gt;&lt;br&gt;next: usize&lt;br&gt;read_pos: Vec&amp;lt;u8&amp;gt;&lt;br&gt;to_read: usize" style="text;strokeColor=none;fillColor=none;align=left;verticalAlign=top;spacingLeft=4;spacingRight=4;overflow=hidden;rotatable=0;points=[[0,0.5],[1,0.5]];portConstraint=eastwest;whiteSpace=wrap;html=1;" parent="6NU6iWtaKqasOhbTZYST-41" vertex="1">
          <mxGeometry y="26" width="160" height="64" as="geometry" />
        </mxCell>
        <mxCell id="6NU6iWtaKqasOhbTZYST-43" value="" style="line;strokeWidth=1;fillColor=none;align=left;verticalAlign=middle;spacingTop=-1;spacingLeft=3;spacingRight=3;rotatable=0;labelPosition=right;points=[];portConstraint=eastwest;strokeColor=inherit;" parent="6NU6iWtaKqasOhbTZYST-41" vertex="1">
          <mxGeometry y="90" width="160" height="8" as="geometry" />
        </mxCell>
        <mxCell id="6NU6iWtaKqasOhbTZYST-44" value="decode()&lt;br&gt;get_buffer()&lt;br&gt;new()&lt;br&gt;next_step()&lt;br&gt;resize_buffer()" style="text;strokeColor=none;fillColor=none;align=left;verticalAlign=top;spacingLeft=4;spacingRight=4;overflow=hidden;rotatable=0;points=[[0,0.5],[1,0.5]];portConstraint=eastwest;whiteSpace=wrap;html=1;" parent="6NU6iWtaKqasOhbTZYST-41" vertex="1">
          <mxGeometry y="98" width="160" height="92" as="geometry" />
        </mxCell>
        <mxCell id="6NU6iWtaKqasOhbTZYST-45" value="DevPoll" style="swimlane;fontStyle=1;align=center;verticalAlign=top;childLayout=stackLayout;horizontal=1;startSize=26;horizontalStack=0;resizeParent=1;resizeParentMax=0;resizeLast=0;collapsible=1;marginBottom=0;whiteSpace=wrap;html=1;" parent="WIyWlLk6GJQsqaUBKTNV-1" vertex="1">
          <mxGeometry x="2080" y="480" width="190" height="290" as="geometry" />
        </mxCell>
        <mxCell id="6NU6iWtaKqasOhbTZYST-46" value="base: WorkerPollerBase&lt;br&gt;devpoll_fd: ZmqFileDesc&lt;br&gt;fd_table: Vec&amp;lt;FdEntry&amp;gt;&lt;br&gt;pending_list: Vec&amp;lt;ZmqFileDesc&amp;gt;" style="text;strokeColor=none;fillColor=none;align=left;verticalAlign=top;spacingLeft=4;spacingRight=4;overflow=hidden;rotatable=0;points=[[0,0.5],[1,0.5]];portConstraint=eastwest;whiteSpace=wrap;html=1;" parent="6NU6iWtaKqasOhbTZYST-45" vertex="1">
          <mxGeometry y="26" width="190" height="84" as="geometry" />
        </mxCell>
        <mxCell id="6NU6iWtaKqasOhbTZYST-47" value="" style="line;strokeWidth=1;fillColor=none;align=left;verticalAlign=middle;spacingTop=-1;spacingLeft=3;spacingRight=3;rotatable=0;labelPosition=right;points=[];portConstraint=eastwest;strokeColor=inherit;" parent="6NU6iWtaKqasOhbTZYST-45" vertex="1">
          <mxGeometry y="110" width="190" height="8" as="geometry" />
        </mxCell>
        <mxCell id="6NU6iWtaKqasOhbTZYST-48" value="add_fd()&lt;br&gt;devpoll_ctl()&lt;br&gt;loop_fn()&lt;br&gt;max_fds()&lt;br&gt;new()&lt;br&gt;reset_pollin()&lt;br&gt;reset_pollout()&lt;br&gt;rm_fd()&lt;br&gt;set_pollin()&lt;br&gt;set_pollout()&lt;br&gt;stop()" style="text;strokeColor=none;fillColor=none;align=left;verticalAlign=top;spacingLeft=4;spacingRight=4;overflow=hidden;rotatable=0;points=[[0,0.5],[1,0.5]];portConstraint=eastwest;whiteSpace=wrap;html=1;" parent="6NU6iWtaKqasOhbTZYST-45" vertex="1">
          <mxGeometry y="118" width="190" height="172" as="geometry" />
        </mxCell>
        <mxCell id="6NU6iWtaKqasOhbTZYST-49" value="ZmqDgram" style="swimlane;fontStyle=1;align=center;verticalAlign=top;childLayout=stackLayout;horizontal=1;startSize=26;horizontalStack=0;resizeParent=1;resizeParentMax=0;resizeLast=0;collapsible=1;marginBottom=0;whiteSpace=wrap;html=1;" parent="WIyWlLk6GJQsqaUBKTNV-1" vertex="1">
          <mxGeometry x="320" y="880" width="190" height="240" as="geometry" />
        </mxCell>
        <mxCell id="6NU6iWtaKqasOhbTZYST-50" value="more_out:bool&lt;br&gt;pipe: Option&amp;lt;&amp;amp;mut ZmqPipe&amp;gt;&lt;br&gt;socket_base: ZmqSocket" style="text;strokeColor=none;fillColor=none;align=left;verticalAlign=top;spacingLeft=4;spacingRight=4;overflow=hidden;rotatable=0;points=[[0,0.5],[1,0.5]];portConstraint=eastwest;whiteSpace=wrap;html=1;" parent="6NU6iWtaKqasOhbTZYST-49" vertex="1">
          <mxGeometry y="26" width="190" height="64" as="geometry" />
        </mxCell>
        <mxCell id="6NU6iWtaKqasOhbTZYST-51" value="" style="line;strokeWidth=1;fillColor=none;align=left;verticalAlign=middle;spacingTop=-1;spacingLeft=3;spacingRight=3;rotatable=0;labelPosition=right;points=[];portConstraint=eastwest;strokeColor=inherit;" parent="6NU6iWtaKqasOhbTZYST-49" vertex="1">
          <mxGeometry y="90" width="190" height="8" as="geometry" />
        </mxCell>
        <mxCell id="6NU6iWtaKqasOhbTZYST-52" value="new()&lt;br&gt;xattach_pipe()&lt;br&gt;xhas_in()&lt;br&gt;xhas_out()&lt;br&gt;xpipe_terminated()&lt;br&gt;xread_activated()&lt;br&gt;xrecv()&lt;br&gt;xsend()&lt;br&gt;xwrite_activated()" style="text;strokeColor=none;fillColor=none;align=left;verticalAlign=top;spacingLeft=4;spacingRight=4;overflow=hidden;rotatable=0;points=[[0,0.5],[1,0.5]];portConstraint=eastwest;whiteSpace=wrap;html=1;" parent="6NU6iWtaKqasOhbTZYST-49" vertex="1">
          <mxGeometry y="98" width="190" height="142" as="geometry" />
        </mxCell>
        <mxCell id="6NU6iWtaKqasOhbTZYST-54" value="ZmqDish" style="swimlane;fontStyle=1;align=center;verticalAlign=top;childLayout=stackLayout;horizontal=1;startSize=26;horizontalStack=0;resizeParent=1;resizeParentMax=0;resizeLast=0;collapsible=1;marginBottom=0;whiteSpace=wrap;html=1;" parent="WIyWlLk6GJQsqaUBKTNV-1" vertex="1">
          <mxGeometry x="320" y="1169" width="180" height="350" as="geometry" />
        </mxCell>
        <mxCell id="6NU6iWtaKqasOhbTZYST-55" value="dist: ZmqDist&lt;br&gt;has_message:bool&lt;br&gt;message: ZmqMessage&lt;br&gt;subscriptions: HashSet&amp;lt;String&amp;gt;&lt;br&gt;fair_queue: ZmqFq&lt;br&gt;socket_base: ZmqSocket" style="text;strokeColor=none;fillColor=none;align=left;verticalAlign=top;spacingLeft=4;spacingRight=4;overflow=hidden;rotatable=0;points=[[0,0.5],[1,0.5]];portConstraint=eastwest;whiteSpace=wrap;html=1;" parent="6NU6iWtaKqasOhbTZYST-54" vertex="1">
          <mxGeometry y="26" width="180" height="104" as="geometry" />
        </mxCell>
        <mxCell id="6NU6iWtaKqasOhbTZYST-56" value="" style="line;strokeWidth=1;fillColor=none;align=left;verticalAlign=middle;spacingTop=-1;spacingLeft=3;spacingRight=3;rotatable=0;labelPosition=right;points=[];portConstraint=eastwest;strokeColor=inherit;" parent="6NU6iWtaKqasOhbTZYST-54" vertex="1">
          <mxGeometry y="130" width="180" height="8" as="geometry" />
        </mxCell>
        <mxCell id="6NU6iWtaKqasOhbTZYST-57" value="new()&lt;br&gt;send_subscriptions()&lt;br&gt;xattach_pipe()&lt;br&gt;xhas_in()&lt;br&gt;xhas_out()&lt;br&gt;xhiccuped&lt;br&gt;xjoin()&lt;br&gt;xleave()&lt;br&gt;xpipe_terminated()&lt;br&gt;xread_activated()&lt;br&gt;xrecv()&lt;br&gt;xsend()&lt;br&gt;xwrite_activated()&lt;br&gt;xxrecv()" style="text;strokeColor=none;fillColor=none;align=left;verticalAlign=top;spacingLeft=4;spacingRight=4;overflow=hidden;rotatable=0;points=[[0,0.5],[1,0.5]];portConstraint=eastwest;whiteSpace=wrap;html=1;" parent="6NU6iWtaKqasOhbTZYST-54" vertex="1">
          <mxGeometry y="138" width="180" height="212" as="geometry" />
        </mxCell>
        <mxCell id="6NU6iWtaKqasOhbTZYST-58" value="ZmqDist" style="swimlane;fontStyle=1;align=center;verticalAlign=top;childLayout=stackLayout;horizontal=1;startSize=26;horizontalStack=0;resizeParent=1;resizeParentMax=0;resizeLast=0;collapsible=1;marginBottom=0;whiteSpace=wrap;html=1;" parent="WIyWlLk6GJQsqaUBKTNV-1" vertex="1">
          <mxGeometry x="320" y="1560" width="160" height="330" as="geometry" />
        </mxCell>
        <mxCell id="6NU6iWtaKqasOhbTZYST-59" value="active: usize&lt;br&gt;eligible: usize&lt;br&gt;matching: usize&lt;br&gt;more:bool&lt;br&gt;pipes: Vec&amp;lt;ZmqPipe&amp;gt;" style="text;strokeColor=none;fillColor=none;align=left;verticalAlign=top;spacingLeft=4;spacingRight=4;overflow=hidden;rotatable=0;points=[[0,0.5],[1,0.5]];portConstraint=eastwest;whiteSpace=wrap;html=1;" parent="6NU6iWtaKqasOhbTZYST-58" vertex="1">
          <mxGeometry y="26" width="160" height="84" as="geometry" />
        </mxCell>
        <mxCell id="6NU6iWtaKqasOhbTZYST-60" value="" style="line;strokeWidth=1;fillColor=none;align=left;verticalAlign=middle;spacingTop=-1;spacingLeft=3;spacingRight=3;rotatable=0;labelPosition=right;points=[];portConstraint=eastwest;strokeColor=inherit;" parent="6NU6iWtaKqasOhbTZYST-58" vertex="1">
          <mxGeometry y="110" width="160" height="8" as="geometry" />
        </mxCell>
        <mxCell id="6NU6iWtaKqasOhbTZYST-61" value="activated()&lt;br&gt;attach()&lt;br&gt;check_hwm()&lt;br&gt;distribute()&lt;br&gt;has_out()&lt;br&gt;has_pipe()&lt;br&gt;mark_matching()&lt;br&gt;new()&lt;br&gt;pipe_terminated()&lt;br&gt;reverse_match()&lt;br&gt;send_to_all()&lt;br&gt;send_to_matching()&lt;br&gt;unmatch()&lt;br&gt;write()&lt;br&gt;" style="text;strokeColor=none;fillColor=none;align=left;verticalAlign=top;spacingLeft=4;spacingRight=4;overflow=hidden;rotatable=0;points=[[0,0.5],[1,0.5]];portConstraint=eastwest;whiteSpace=wrap;html=1;" parent="6NU6iWtaKqasOhbTZYST-58" vertex="1">
          <mxGeometry y="118" width="160" height="212" as="geometry" />
        </mxCell>
        <mxCell id="6NU6iWtaKqasOhbTZYST-62" value="EncoderBase" style="swimlane;fontStyle=1;align=center;verticalAlign=top;childLayout=stackLayout;horizontal=1;startSize=26;horizontalStack=0;resizeParent=1;resizeParentMax=0;resizeLast=0;collapsible=1;marginBottom=0;whiteSpace=wrap;html=1;" parent="WIyWlLk6GJQsqaUBKTNV-1" vertex="1">
          <mxGeometry x="1360" y="280" width="220" height="230" as="geometry" />
        </mxCell>
        <mxCell id="6NU6iWtaKqasOhbTZYST-63" value="buf: Vec&amp;lt;u8&amp;gt;&lt;br&gt;buf_size: usize&lt;br&gt;in_progress: Option&amp;lt;ZMqMessage&amp;gt;&lt;br&gt;new_msg_flag: bool&lt;br&gt;next: step_t&lt;br&gt;to_write: usize&lt;br&gt;write_pos: usize" style="text;strokeColor=none;fillColor=none;align=left;verticalAlign=top;spacingLeft=4;spacingRight=4;overflow=hidden;rotatable=0;points=[[0,0.5],[1,0.5]];portConstraint=eastwest;whiteSpace=wrap;html=1;" parent="6NU6iWtaKqasOhbTZYST-62" vertex="1">
          <mxGeometry y="26" width="220" height="124" as="geometry" />
        </mxCell>
        <mxCell id="6NU6iWtaKqasOhbTZYST-64" value="" style="line;strokeWidth=1;fillColor=none;align=left;verticalAlign=middle;spacingTop=-1;spacingLeft=3;spacingRight=3;rotatable=0;labelPosition=right;points=[];portConstraint=eastwest;strokeColor=inherit;" parent="6NU6iWtaKqasOhbTZYST-62" vertex="1">
          <mxGeometry y="150" width="220" height="8" as="geometry" />
        </mxCell>
        <mxCell id="6NU6iWtaKqasOhbTZYST-65" value="encode()&lt;br&gt;load_msg()&lt;br&gt;new()&lt;br&gt;next_step()&lt;br&gt;" style="text;strokeColor=none;fillColor=none;align=left;verticalAlign=top;spacingLeft=4;spacingRight=4;overflow=hidden;rotatable=0;points=[[0,0.5],[1,0.5]];portConstraint=eastwest;whiteSpace=wrap;html=1;" parent="6NU6iWtaKqasOhbTZYST-62" vertex="1">
          <mxGeometry y="158" width="220" height="72" as="geometry" />
        </mxCell>
        <mxCell id="6NU6iWtaKqasOhbTZYST-66" value="EndpointUriPair" style="swimlane;fontStyle=1;align=center;verticalAlign=top;childLayout=stackLayout;horizontal=1;startSize=26;horizontalStack=0;resizeParent=1;resizeParentMax=0;resizeLast=0;collapsible=1;marginBottom=0;whiteSpace=wrap;html=1;" parent="WIyWlLk6GJQsqaUBKTNV-1" vertex="1">
          <mxGeometry x="2080" y="43" width="160" height="130" as="geometry" />
        </mxCell>
        <mxCell id="6NU6iWtaKqasOhbTZYST-67" value="local: String&lt;br&gt;local_type: EndpointType&lt;br&gt;remote: String" style="text;strokeColor=none;fillColor=none;align=left;verticalAlign=top;spacingLeft=4;spacingRight=4;overflow=hidden;rotatable=0;points=[[0,0.5],[1,0.5]];portConstraint=eastwest;whiteSpace=wrap;html=1;" parent="6NU6iWtaKqasOhbTZYST-66" vertex="1">
          <mxGeometry y="26" width="160" height="54" as="geometry" />
        </mxCell>
        <mxCell id="6NU6iWtaKqasOhbTZYST-68" value="" style="line;strokeWidth=1;fillColor=none;align=left;verticalAlign=middle;spacingTop=-1;spacingLeft=3;spacingRight=3;rotatable=0;labelPosition=right;points=[];portConstraint=eastwest;strokeColor=inherit;" parent="6NU6iWtaKqasOhbTZYST-66" vertex="1">
          <mxGeometry y="80" width="160" height="8" as="geometry" />
        </mxCell>
        <mxCell id="6NU6iWtaKqasOhbTZYST-69" value="identifier()&lt;br&gt;new()" style="text;strokeColor=none;fillColor=none;align=left;verticalAlign=top;spacingLeft=4;spacingRight=4;overflow=hidden;rotatable=0;points=[[0,0.5],[1,0.5]];portConstraint=eastwest;whiteSpace=wrap;html=1;" parent="6NU6iWtaKqasOhbTZYST-66" vertex="1">
          <mxGeometry y="88" width="160" height="42" as="geometry" />
        </mxCell>
        <mxCell id="6NU6iWtaKqasOhbTZYST-70" value="ZmqEngine" style="swimlane;fontStyle=1;align=center;verticalAlign=top;childLayout=stackLayout;horizontal=1;startSize=26;horizontalStack=0;resizeParent=1;resizeParentMax=0;resizeLast=0;collapsible=1;marginBottom=0;whiteSpace=wrap;html=1;" parent="WIyWlLk6GJQsqaUBKTNV-1" vertex="1">
          <mxGeometry x="1680" y="43" width="250" height="1320" as="geometry" />
        </mxCell>
        <mxCell id="6NU6iWtaKqasOhbTZYST-71" value="address: ZmqAddress&lt;br&gt;context: &amp;amp;mut ZmqContext&lt;br&gt;empty_endpoint: EndpointUriPair&lt;br&gt;encoder: EncoderBase&lt;br&gt;enpoint_uri_pair: Endpoint UriPair&lt;br&gt;fd: ZmqFileDesc&lt;br&gt;handle: ZmqHandle&lt;br&gt;handshaking: bool&lt;br&gt;has_handshake_stage: bool&lt;br&gt;has_handshake_timer: bool&lt;br&gt;has_heartbeat_timer: bool&lt;br&gt;has_timeout_timer: bool&lt;br&gt;has_ttl_timer: bool&lt;br&gt;inpos: &amp;amp;[u8]&lt;br&gt;input_ready: bool&lt;br&gt;input_stopped: bool&lt;br&gt;insize: usize&lt;br&gt;io_error: bool&lt;br&gt;io_object: ZmqIoObject&lt;br&gt;is_receiver: bool&lt;br&gt;is_sender: bool&lt;br&gt;mechanism: Option&amp;lt;ZmqMechanism&amp;gt;&lt;br&gt;metadata: Option&amp;lt;ZmqMetadata&amp;gt;&lt;br&gt;msg_ready_list: Vec&amp;lt;NormRxStreamState&amp;gt;&lt;br&gt;next_msg: fn(&amp;amp;mut ZmqMessage)&lt;br&gt;norm_descriptor_handle: ZmqHandle&lt;br&gt;norm_instance: NormInstanceHandle&lt;br&gt;norm_session: NormSessionHandle&lt;br&gt;norm_tx_ready: bool&lt;br&gt;norm_tx_stream: NormObjectHandle&lt;br&gt;out_address: ZmqAddress&lt;br&gt;out_buffer: Vec&amp;lt;u8&amp;gt;&lt;br&gt;outpos: &amp;amp;mut [u8]&lt;br&gt;output_ready: bool&lt;br&gt;output_stopped: bool&lt;br&gt;outsize: usize&lt;br&gt;peer_address: String&lt;br&gt;plugged: bool&lt;br&gt;process_msg:L fn(&amp;amp;mut ZmqMessage)&lt;br&gt;raw_address: Option&amp;lt;SocketAddr&amp;gt;&lt;br&gt;recv_enabled: bool&lt;br&gt;rx_pending_list: Vec&amp;lt;NormRxStreamState&amp;gt;&lt;br&gt;rx_ready_list: Vec&amp;lt;NormRxStreamState&amp;gt;&lt;br&gt;socket: &amp;amp;mut ZmqSocket&lt;br&gt;tx_buffer: Vec&amp;lt;u8&amp;gt;&lt;br&gt;tx_first_msg: bool&lt;br&gt;tx_len: usize&lt;br&gt;tx_more_bit: bool&lt;br&gt;tx_msg: ZmqMessage&lt;br&gt;wrapper_read_fd: ZmqFileDesc&lt;br&gt;wrapper_thread_id: u32" style="text;strokeColor=none;fillColor=none;align=left;verticalAlign=top;spacingLeft=4;spacingRight=4;overflow=hidden;rotatable=0;points=[[0,0.5],[1,0.5]];portConstraint=eastwest;whiteSpace=wrap;html=1;" parent="6NU6iWtaKqasOhbTZYST-70" vertex="1">
          <mxGeometry y="26" width="250" height="744" as="geometry" />
        </mxCell>
        <mxCell id="6NU6iWtaKqasOhbTZYST-72" value="" style="line;strokeWidth=1;fillColor=none;align=left;verticalAlign=middle;spacingTop=-1;spacingLeft=3;spacingRight=3;rotatable=0;labelPosition=right;points=[];portConstraint=eastwest;strokeColor=inherit;" parent="6NU6iWtaKqasOhbTZYST-70" vertex="1">
          <mxGeometry y="770" width="250" height="8" as="geometry" />
        </mxCell>
        <mxCell id="6NU6iWtaKqasOhbTZYST-73" value="decode()&lt;br&gt;decode_and_push()&lt;br&gt;get_buffer()&lt;br&gt;get_endpoint()&lt;br&gt;has_handshake_stage()&lt;br&gt;in_event()&lt;br&gt;in_event_internal()&lt;br&gt;init()&lt;br&gt;init_properties()&lt;br&gt;mechanism_ready()&lt;br&gt;msg()&lt;br&gt;next_handshake_command()&lt;br&gt;out_event()&lt;br&gt;plug()&lt;br&gt;process_command_msg()&lt;br&gt;process_handshake_command()&lt;br&gt;produce_ping_msg()&lt;br&gt;pull_and_decode()&lt;br&gt;pull_msg_to_session()&lt;br&gt;push_msg_to_session()&lt;br&gt;push_one_then_decode_and_push()&lt;br&gt;read&lt;br&gt;reset_pollout()&lt;br&gt;resize_buffer&lt;br&gt;restart_input()&lt;br&gt;restart_output()&lt;br&gt;session()&lt;br&gt;set_handshake_timer()&lt;br&gt;set_pollin()&lt;br&gt;set_pollout()&lt;br&gt;socket()&lt;br&gt;terminate()&lt;br&gt;timer_event()&lt;br&gt;unplug()&lt;br&gt;write()&lt;br&gt;write_credential()&lt;br&gt;zap_msg_available()" style="text;strokeColor=none;fillColor=none;align=left;verticalAlign=top;spacingLeft=4;spacingRight=4;overflow=hidden;rotatable=0;points=[[0,0.5],[1,0.5]];portConstraint=eastwest;whiteSpace=wrap;html=1;" parent="6NU6iWtaKqasOhbTZYST-70" vertex="1">
          <mxGeometry y="778" width="250" height="542" as="geometry" />
        </mxCell>
        <mxCell id="6NU6iWtaKqasOhbTZYST-74" value="ZmqFq" style="swimlane;fontStyle=1;align=center;verticalAlign=top;childLayout=stackLayout;horizontal=1;startSize=26;horizontalStack=0;resizeParent=1;resizeParentMax=0;resizeLast=0;collapsible=1;marginBottom=0;whiteSpace=wrap;html=1;" parent="WIyWlLk6GJQsqaUBKTNV-1" vertex="1">
          <mxGeometry x="2080" y="220" width="160" height="220" as="geometry" />
        </mxCell>
        <mxCell id="6NU6iWtaKqasOhbTZYST-75" value="current: usize&lt;br&gt;active: usize&lt;br&gt;more: bool&lt;br&gt;pipes: Vec&amp;lt;ZmqPipe&amp;gt;" style="text;strokeColor=none;fillColor=none;align=left;verticalAlign=top;spacingLeft=4;spacingRight=4;overflow=hidden;rotatable=0;points=[[0,0.5],[1,0.5]];portConstraint=eastwest;whiteSpace=wrap;html=1;" parent="6NU6iWtaKqasOhbTZYST-74" vertex="1">
          <mxGeometry y="26" width="160" height="74" as="geometry" />
        </mxCell>
        <mxCell id="6NU6iWtaKqasOhbTZYST-76" value="" style="line;strokeWidth=1;fillColor=none;align=left;verticalAlign=middle;spacingTop=-1;spacingLeft=3;spacingRight=3;rotatable=0;labelPosition=right;points=[];portConstraint=eastwest;strokeColor=inherit;" parent="6NU6iWtaKqasOhbTZYST-74" vertex="1">
          <mxGeometry y="100" width="160" height="8" as="geometry" />
        </mxCell>
        <mxCell id="6NU6iWtaKqasOhbTZYST-77" value="activated()&lt;br&gt;attach()&lt;br&gt;has_in()&lt;br&gt;new()&lt;br&gt;pipe_terminated()&lt;br&gt;recv()&lt;br&gt;recvpipe()&lt;br&gt;" style="text;strokeColor=none;fillColor=none;align=left;verticalAlign=top;spacingLeft=4;spacingRight=4;overflow=hidden;rotatable=0;points=[[0,0.5],[1,0.5]];portConstraint=eastwest;whiteSpace=wrap;html=1;" parent="6NU6iWtaKqasOhbTZYST-74" vertex="1">
          <mxGeometry y="108" width="160" height="112" as="geometry" />
        </mxCell>
        <mxCell id="6NU6iWtaKqasOhbTZYST-78" value="ZmqGather" style="swimlane;fontStyle=1;align=center;verticalAlign=top;childLayout=stackLayout;horizontal=1;startSize=26;horizontalStack=0;resizeParent=1;resizeParentMax=0;resizeLast=0;collapsible=1;marginBottom=0;whiteSpace=wrap;html=1;" parent="WIyWlLk6GJQsqaUBKTNV-1" vertex="1">
          <mxGeometry x="320" y="1940" width="160" height="180" as="geometry" />
        </mxCell>
        <mxCell id="6NU6iWtaKqasOhbTZYST-79" value="fair_queue: ZmqFq&lt;br&gt;socket_base: ZmqSocket" style="text;strokeColor=none;fillColor=none;align=left;verticalAlign=top;spacingLeft=4;spacingRight=4;overflow=hidden;rotatable=0;points=[[0,0.5],[1,0.5]];portConstraint=eastwest;whiteSpace=wrap;html=1;" parent="6NU6iWtaKqasOhbTZYST-78" vertex="1">
          <mxGeometry y="26" width="160" height="44" as="geometry" />
        </mxCell>
        <mxCell id="6NU6iWtaKqasOhbTZYST-80" value="" style="line;strokeWidth=1;fillColor=none;align=left;verticalAlign=middle;spacingTop=-1;spacingLeft=3;spacingRight=3;rotatable=0;labelPosition=right;points=[];portConstraint=eastwest;strokeColor=inherit;" parent="6NU6iWtaKqasOhbTZYST-78" vertex="1">
          <mxGeometry y="70" width="160" height="8" as="geometry" />
        </mxCell>
        <mxCell id="6NU6iWtaKqasOhbTZYST-81" value="new()&lt;br&gt;xattach_pipe()&lt;br&gt;xhas_in()&lt;br&gt;xpipe_terminated()&lt;br&gt;xread_activated()&lt;br&gt;xrecv()" style="text;strokeColor=none;fillColor=none;align=left;verticalAlign=top;spacingLeft=4;spacingRight=4;overflow=hidden;rotatable=0;points=[[0,0.5],[1,0.5]];portConstraint=eastwest;whiteSpace=wrap;html=1;" parent="6NU6iWtaKqasOhbTZYST-78" vertex="1">
          <mxGeometry y="78" width="160" height="102" as="geometry" />
        </mxCell>
        <mxCell id="6NU6iWtaKqasOhbTZYST-82" value="ZmqGssApiClient" style="swimlane;fontStyle=1;align=center;verticalAlign=top;childLayout=stackLayout;horizontal=1;startSize=26;horizontalStack=0;resizeParent=1;resizeParentMax=0;resizeLast=0;collapsible=1;marginBottom=0;whiteSpace=wrap;html=1;" parent="WIyWlLk6GJQsqaUBKTNV-1" vertex="1">
          <mxGeometry x="680" y="1010" width="270" height="290" as="geometry" />
        </mxCell>
        <mxCell id="6NU6iWtaKqasOhbTZYST-83" value="mechanism_base: ZmqGssApiMechanismBase&lt;br&gt;mechs: gss_OID_set_desc&lt;br&gt;security_context_extablished: bool&lt;br&gt;service_name: String&lt;br&gt;service_name_type: gss_OID&lt;br&gt;state: ZmqGssApiClientState&lt;br&gt;token_ptr: &amp;amp;mut gss_buffer_desc" style="text;strokeColor=none;fillColor=none;align=left;verticalAlign=top;spacingLeft=4;spacingRight=4;overflow=hidden;rotatable=0;points=[[0,0.5],[1,0.5]];portConstraint=eastwest;whiteSpace=wrap;html=1;" parent="6NU6iWtaKqasOhbTZYST-82" vertex="1">
          <mxGeometry y="26" width="270" height="114" as="geometry" />
        </mxCell>
        <mxCell id="6NU6iWtaKqasOhbTZYST-84" value="" style="line;strokeWidth=1;fillColor=none;align=left;verticalAlign=middle;spacingTop=-1;spacingLeft=3;spacingRight=3;rotatable=0;labelPosition=right;points=[];portConstraint=eastwest;strokeColor=inherit;" parent="6NU6iWtaKqasOhbTZYST-82" vertex="1">
          <mxGeometry y="140" width="270" height="8" as="geometry" />
        </mxCell>
        <mxCell id="6NU6iWtaKqasOhbTZYST-85" value="decode()&lt;br&gt;encode()&lt;br&gt;initialize_context()&lt;br&gt;new()&lt;br&gt;next_handshake_command()&lt;br&gt;process_handshake_command()&lt;br&gt;process_next_token()&lt;br&gt;produce_next_token()&lt;br&gt;status()" style="text;strokeColor=none;fillColor=none;align=left;verticalAlign=top;spacingLeft=4;spacingRight=4;overflow=hidden;rotatable=0;points=[[0,0.5],[1,0.5]];portConstraint=eastwest;whiteSpace=wrap;html=1;" parent="6NU6iWtaKqasOhbTZYST-82" vertex="1">
          <mxGeometry y="148" width="270" height="142" as="geometry" />
        </mxCell>
        <mxCell id="6NU6iWtaKqasOhbTZYST-86" value="ZmqGssApiMechanismBase" style="swimlane;fontStyle=1;align=center;verticalAlign=top;childLayout=stackLayout;horizontal=1;startSize=26;horizontalStack=0;resizeParent=1;resizeParentMax=0;resizeLast=0;collapsible=1;marginBottom=0;whiteSpace=wrap;html=1;" parent="WIyWlLk6GJQsqaUBKTNV-1" vertex="1">
          <mxGeometry x="1011" y="1010" width="230" height="380" as="geometry" />
        </mxCell>
        <mxCell id="6NU6iWtaKqasOhbTZYST-87" value="context: gss_ctx_id_t&lt;br&gt;cred: gss_cred_id_t&lt;br&gt;do_encryption: bool&lt;br&gt;gss_flags: u32&lt;br&gt;init_sec_mion_stat: u32&lt;br&gt;maj_stat: u32&lt;br&gt;mechanism_base: ZmqMechanismBase&lt;br&gt;min_stat: u32&lt;br&gt;principal_name: String&lt;br&gt;recv_tok: gss_buffer&lt;br&gt;ret_flags: u32&lt;br&gt;send_tok: gss_buffer&lt;br&gt;target_name: gss_name_t" style="text;strokeColor=none;fillColor=none;align=left;verticalAlign=top;spacingLeft=4;spacingRight=4;overflow=hidden;rotatable=0;points=[[0,0.5],[1,0.5]];portConstraint=eastwest;whiteSpace=wrap;html=1;" parent="6NU6iWtaKqasOhbTZYST-86" vertex="1">
          <mxGeometry y="26" width="230" height="204" as="geometry" />
        </mxCell>
        <mxCell id="6NU6iWtaKqasOhbTZYST-88" value="" style="line;strokeWidth=1;fillColor=none;align=left;verticalAlign=middle;spacingTop=-1;spacingLeft=3;spacingRight=3;rotatable=0;labelPosition=right;points=[];portConstraint=eastwest;strokeColor=inherit;" parent="6NU6iWtaKqasOhbTZYST-86" vertex="1">
          <mxGeometry y="230" width="230" height="8" as="geometry" />
        </mxCell>
        <mxCell id="6NU6iWtaKqasOhbTZYST-89" value="acquire_credentials()&lt;br&gt;convert_nametype()&lt;br&gt;decode_message()&lt;br&gt;encode_message()&lt;br&gt;new()&lt;br&gt;process_initiate()&lt;br&gt;process_ready()&lt;br&gt;produce_initiate()&lt;br&gt;produce_ready()" style="text;strokeColor=none;fillColor=none;align=left;verticalAlign=top;spacingLeft=4;spacingRight=4;overflow=hidden;rotatable=0;points=[[0,0.5],[1,0.5]];portConstraint=eastwest;whiteSpace=wrap;html=1;" parent="6NU6iWtaKqasOhbTZYST-86" vertex="1">
          <mxGeometry y="238" width="230" height="142" as="geometry" />
        </mxCell>
        <mxCell id="6NU6iWtaKqasOhbTZYST-90" style="edgeStyle=orthogonalEdgeStyle;rounded=0;orthogonalLoop=1;jettySize=auto;html=1;exitX=1;exitY=0.5;exitDx=0;exitDy=0;entryX=0;entryY=0.5;entryDx=0;entryDy=0;" parent="WIyWlLk6GJQsqaUBKTNV-1" source="6NU6iWtaKqasOhbTZYST-83" target="6NU6iWtaKqasOhbTZYST-87" edge="1">
          <mxGeometry relative="1" as="geometry" />
        </mxCell>
        <mxCell id="6NU6iWtaKqasOhbTZYST-91" value="ZmqGssApiServer" style="swimlane;fontStyle=1;align=center;verticalAlign=top;childLayout=stackLayout;horizontal=1;startSize=26;horizontalStack=0;resizeParent=1;resizeParentMax=0;resizeLast=0;collapsible=1;marginBottom=0;whiteSpace=wrap;html=1;" parent="WIyWlLk6GJQsqaUBKTNV-1" vertex="1">
          <mxGeometry x="680" y="1440" width="200" height="310" as="geometry" />
        </mxCell>
        <mxCell id="6NU6iWtaKqasOhbTZYST-92" value="doid: gss_OID&lt;br&gt;mechanism_base: ZmqGssApiMechanismBase&lt;br&gt;security_context_established: bool&lt;br&gt;session: &amp;amp;mut ZmqSessionBase&lt;br&gt;zap_cleint: ZmqZapClient" style="text;strokeColor=none;fillColor=none;align=left;verticalAlign=top;spacingLeft=4;spacingRight=4;overflow=hidden;rotatable=0;points=[[0,0.5],[1,0.5]];portConstraint=eastwest;whiteSpace=wrap;html=1;" parent="6NU6iWtaKqasOhbTZYST-91" vertex="1">
          <mxGeometry y="26" width="200" height="104" as="geometry" />
        </mxCell>
        <mxCell id="6NU6iWtaKqasOhbTZYST-93" value="" style="line;strokeWidth=1;fillColor=none;align=left;verticalAlign=middle;spacingTop=-1;spacingLeft=3;spacingRight=3;rotatable=0;labelPosition=right;points=[];portConstraint=eastwest;strokeColor=inherit;" parent="6NU6iWtaKqasOhbTZYST-91" vertex="1">
          <mxGeometry y="130" width="200" height="8" as="geometry" />
        </mxCell>
        <mxCell id="6NU6iWtaKqasOhbTZYST-94" value="accept_context()&lt;br&gt;decode()&lt;br&gt;encode()&lt;br&gt;new()&lt;br&gt;next_handshake_command()&lt;br&gt;process_handshake_command()&lt;br&gt;process_next_token()&lt;br&gt;produce_next_token()&lt;br&gt;send_zap_request()&lt;br&gt;status()&lt;br&gt;zap_msg_available()" style="text;strokeColor=none;fillColor=none;align=left;verticalAlign=top;spacingLeft=4;spacingRight=4;overflow=hidden;rotatable=0;points=[[0,0.5],[1,0.5]];portConstraint=eastwest;whiteSpace=wrap;html=1;" parent="6NU6iWtaKqasOhbTZYST-91" vertex="1">
          <mxGeometry y="138" width="200" height="172" as="geometry" />
        </mxCell>
        <mxCell id="6NU6iWtaKqasOhbTZYST-95" value="ZmqInprocs" style="swimlane;fontStyle=1;align=center;verticalAlign=top;childLayout=stackLayout;horizontal=1;startSize=26;horizontalStack=0;resizeParent=1;resizeParentMax=0;resizeLast=0;collapsible=1;marginBottom=0;whiteSpace=wrap;html=1;" parent="WIyWlLk6GJQsqaUBKTNV-1" vertex="1">
          <mxGeometry x="2080" y="838" width="220" height="130" as="geometry" />
        </mxCell>
        <mxCell id="6NU6iWtaKqasOhbTZYST-96" value="inprocs: HashMap&amp;lt;String,ZmqPipe&amp;gt;" style="text;strokeColor=none;fillColor=none;align=left;verticalAlign=top;spacingLeft=4;spacingRight=4;overflow=hidden;rotatable=0;points=[[0,0.5],[1,0.5]];portConstraint=eastwest;whiteSpace=wrap;html=1;" parent="6NU6iWtaKqasOhbTZYST-95" vertex="1">
          <mxGeometry y="26" width="220" height="34" as="geometry" />
        </mxCell>
        <mxCell id="6NU6iWtaKqasOhbTZYST-97" value="" style="line;strokeWidth=1;fillColor=none;align=left;verticalAlign=middle;spacingTop=-1;spacingLeft=3;spacingRight=3;rotatable=0;labelPosition=right;points=[];portConstraint=eastwest;strokeColor=inherit;" parent="6NU6iWtaKqasOhbTZYST-95" vertex="1">
          <mxGeometry y="60" width="220" height="8" as="geometry" />
        </mxCell>
        <mxCell id="6NU6iWtaKqasOhbTZYST-98" value="emplace()&lt;br&gt;erase_pipe()&lt;br&gt;erase_pipes()" style="text;strokeColor=none;fillColor=none;align=left;verticalAlign=top;spacingLeft=4;spacingRight=4;overflow=hidden;rotatable=0;points=[[0,0.5],[1,0.5]];portConstraint=eastwest;whiteSpace=wrap;html=1;" parent="6NU6iWtaKqasOhbTZYST-95" vertex="1">
          <mxGeometry y="68" width="220" height="62" as="geometry" />
        </mxCell>
        <mxCell id="6NU6iWtaKqasOhbTZYST-100" value="ZmqIoObject" style="swimlane;fontStyle=1;align=center;verticalAlign=top;childLayout=stackLayout;horizontal=1;startSize=26;horizontalStack=0;resizeParent=1;resizeParentMax=0;resizeLast=0;collapsible=1;marginBottom=0;whiteSpace=wrap;html=1;" parent="WIyWlLk6GJQsqaUBKTNV-1" vertex="1">
          <mxGeometry x="30" y="760" width="160" height="230" as="geometry" />
        </mxCell>
        <mxCell id="6NU6iWtaKqasOhbTZYST-101" value="poller: Option&amp;lt;ZmqHandle&amp;gt;" style="text;strokeColor=none;fillColor=none;align=left;verticalAlign=top;spacingLeft=4;spacingRight=4;overflow=hidden;rotatable=0;points=[[0,0.5],[1,0.5]];portConstraint=eastwest;whiteSpace=wrap;html=1;" parent="6NU6iWtaKqasOhbTZYST-100" vertex="1">
          <mxGeometry y="26" width="160" height="26" as="geometry" />
        </mxCell>
        <mxCell id="6NU6iWtaKqasOhbTZYST-102" value="" style="line;strokeWidth=1;fillColor=none;align=left;verticalAlign=middle;spacingTop=-1;spacingLeft=3;spacingRight=3;rotatable=0;labelPosition=right;points=[];portConstraint=eastwest;strokeColor=inherit;" parent="6NU6iWtaKqasOhbTZYST-100" vertex="1">
          <mxGeometry y="52" width="160" height="8" as="geometry" />
        </mxCell>
        <mxCell id="6NU6iWtaKqasOhbTZYST-103" value="add_fd()&lt;br&gt;add_timer()&lt;br&gt;cancel_timer()&lt;br&gt;new()&lt;br&gt;plug()&lt;br&gt;reset_pollin()&lt;br&gt;reset_pollout()&lt;br&gt;rm_fd()&lt;br&gt;set_pollin()&lt;br&gt;set_pollout()&lt;br&gt;unplug()" style="text;strokeColor=none;fillColor=none;align=left;verticalAlign=top;spacingLeft=4;spacingRight=4;overflow=hidden;rotatable=0;points=[[0,0.5],[1,0.5]];portConstraint=eastwest;whiteSpace=wrap;html=1;" parent="6NU6iWtaKqasOhbTZYST-100" vertex="1">
          <mxGeometry y="60" width="160" height="170" as="geometry" />
        </mxCell>
        <mxCell id="6NU6iWtaKqasOhbTZYST-104" value="IpResolver" style="swimlane;fontStyle=1;align=center;verticalAlign=top;childLayout=stackLayout;horizontal=1;startSize=26;horizontalStack=0;resizeParent=1;resizeParentMax=0;resizeLast=0;collapsible=1;marginBottom=0;whiteSpace=wrap;html=1;" parent="WIyWlLk6GJQsqaUBKTNV-1" vertex="1">
          <mxGeometry x="2080" y="1036" width="160" height="160" as="geometry" />
        </mxCell>
        <mxCell id="6NU6iWtaKqasOhbTZYST-105" value="options: IpResolverOptions" style="text;strokeColor=none;fillColor=none;align=left;verticalAlign=top;spacingLeft=4;spacingRight=4;overflow=hidden;rotatable=0;points=[[0,0.5],[1,0.5]];portConstraint=eastwest;whiteSpace=wrap;html=1;" parent="6NU6iWtaKqasOhbTZYST-104" vertex="1">
          <mxGeometry y="26" width="160" height="26" as="geometry" />
        </mxCell>
        <mxCell id="6NU6iWtaKqasOhbTZYST-106" value="" style="line;strokeWidth=1;fillColor=none;align=left;verticalAlign=middle;spacingTop=-1;spacingLeft=3;spacingRight=3;rotatable=0;labelPosition=right;points=[];portConstraint=eastwest;strokeColor=inherit;" parent="6NU6iWtaKqasOhbTZYST-104" vertex="1">
          <mxGeometry y="52" width="160" height="8" as="geometry" />
        </mxCell>
        <mxCell id="6NU6iWtaKqasOhbTZYST-107" value="do_freeaddrinfo&lt;br&gt;do_getaddrinfo&lt;br&gt;new()&lt;br&gt;resolve()&lt;br&gt;resolve_getaddrinfo()&lt;br&gt;resolve_nic_name()" style="text;strokeColor=none;fillColor=none;align=left;verticalAlign=top;spacingLeft=4;spacingRight=4;overflow=hidden;rotatable=0;points=[[0,0.5],[1,0.5]];portConstraint=eastwest;whiteSpace=wrap;html=1;" parent="6NU6iWtaKqasOhbTZYST-104" vertex="1">
          <mxGeometry y="60" width="160" height="100" as="geometry" />
        </mxCell>
        <mxCell id="6NU6iWtaKqasOhbTZYST-108" value="IpcConnecter&lt;br&gt;" style="swimlane;fontStyle=1;align=center;verticalAlign=top;childLayout=stackLayout;horizontal=1;startSize=26;horizontalStack=0;resizeParent=1;resizeParentMax=0;resizeLast=0;collapsible=1;marginBottom=0;whiteSpace=wrap;html=1;" parent="WIyWlLk6GJQsqaUBKTNV-1" vertex="1">
          <mxGeometry x="2080" y="1239" width="160" height="124" as="geometry" />
        </mxCell>
        <mxCell id="6NU6iWtaKqasOhbTZYST-110" value="" style="line;strokeWidth=1;fillColor=none;align=left;verticalAlign=middle;spacingTop=-1;spacingLeft=3;spacingRight=3;rotatable=0;labelPosition=right;points=[];portConstraint=eastwest;strokeColor=inherit;" parent="6NU6iWtaKqasOhbTZYST-108" vertex="1">
          <mxGeometry y="26" width="160" height="8" as="geometry" />
        </mxCell>
        <mxCell id="6NU6iWtaKqasOhbTZYST-111" value="connect()&lt;br&gt;new()&lt;br&gt;open()&lt;br&gt;out_event()&lt;br&gt;start_connecting()" style="text;strokeColor=none;fillColor=none;align=left;verticalAlign=top;spacingLeft=4;spacingRight=4;overflow=hidden;rotatable=0;points=[[0,0.5],[1,0.5]];portConstraint=eastwest;whiteSpace=wrap;html=1;" parent="6NU6iWtaKqasOhbTZYST-108" vertex="1">
          <mxGeometry y="34" width="160" height="90" as="geometry" />
        </mxCell>
        <mxCell id="6NU6iWtaKqasOhbTZYST-112" value="LoadBalancer" style="swimlane;fontStyle=1;align=center;verticalAlign=top;childLayout=stackLayout;horizontal=1;startSize=26;horizontalStack=0;resizeParent=1;resizeParentMax=0;resizeLast=0;collapsible=1;marginBottom=0;whiteSpace=wrap;html=1;" parent="WIyWlLk6GJQsqaUBKTNV-1" vertex="1">
          <mxGeometry x="2080" y="1400" width="160" height="230" as="geometry" />
        </mxCell>
        <mxCell id="6NU6iWtaKqasOhbTZYST-113" value="_current: usize&lt;br&gt;_dropping: bool&lt;br&gt;active: usize&lt;br&gt;more: bool&lt;br&gt;pipes: [ZmqPipe;2]&lt;br&gt;" style="text;strokeColor=none;fillColor=none;align=left;verticalAlign=top;spacingLeft=4;spacingRight=4;overflow=hidden;rotatable=0;points=[[0,0.5],[1,0.5]];portConstraint=eastwest;whiteSpace=wrap;html=1;" parent="6NU6iWtaKqasOhbTZYST-112" vertex="1">
          <mxGeometry y="26" width="160" height="84" as="geometry" />
        </mxCell>
        <mxCell id="6NU6iWtaKqasOhbTZYST-114" value="" style="line;strokeWidth=1;fillColor=none;align=left;verticalAlign=middle;spacingTop=-1;spacingLeft=3;spacingRight=3;rotatable=0;labelPosition=right;points=[];portConstraint=eastwest;strokeColor=inherit;" parent="6NU6iWtaKqasOhbTZYST-112" vertex="1">
          <mxGeometry y="110" width="160" height="8" as="geometry" />
        </mxCell>
        <mxCell id="6NU6iWtaKqasOhbTZYST-115" value="activated()&lt;br&gt;attach()&lt;br&gt;has_out()&lt;br&gt;new()&lt;br&gt;pipe_terminated()&lt;br&gt;send()&lt;br&gt;snedpipe()" style="text;strokeColor=none;fillColor=none;align=left;verticalAlign=top;spacingLeft=4;spacingRight=4;overflow=hidden;rotatable=0;points=[[0,0.5],[1,0.5]];portConstraint=eastwest;whiteSpace=wrap;html=1;" parent="6NU6iWtaKqasOhbTZYST-112" vertex="1">
          <mxGeometry y="118" width="160" height="112" as="geometry" />
        </mxCell>
        <mxCell id="6NU6iWtaKqasOhbTZYST-116" value="Listener" style="swimlane;fontStyle=1;align=center;verticalAlign=top;childLayout=stackLayout;horizontal=1;startSize=26;horizontalStack=0;resizeParent=1;resizeParentMax=0;resizeLast=0;collapsible=1;marginBottom=0;whiteSpace=wrap;html=1;" parent="WIyWlLk6GJQsqaUBKTNV-1" vertex="1">
          <mxGeometry x="2400" y="43" width="160" height="390" as="geometry" />
        </mxCell>
        <mxCell id="6NU6iWtaKqasOhbTZYST-117" value="address: ZmqAddress&lt;br&gt;endpoint: String&lt;br&gt;fd: ZmqFileDesc&lt;br&gt;filename: String&lt;br&gt;handle: ZmqHandle&lt;br&gt;has_file: bool&lt;br&gt;io_object: ZmqIoObject&lt;br&gt;socket: &amp;amp;mut ZmqSocket&lt;br&gt;tls_cred: Vec&amp;lt;u8&amp;gt;&lt;br&gt;tmp_socket_dirname: String&lt;br&gt;wss: bool" style="text;strokeColor=none;fillColor=none;align=left;verticalAlign=top;spacingLeft=4;spacingRight=4;overflow=hidden;rotatable=0;points=[[0,0.5],[1,0.5]];portConstraint=eastwest;whiteSpace=wrap;html=1;" parent="6NU6iWtaKqasOhbTZYST-116" vertex="1">
          <mxGeometry y="26" width="160" height="174" as="geometry" />
        </mxCell>
        <mxCell id="6NU6iWtaKqasOhbTZYST-118" value="" style="line;strokeWidth=1;fillColor=none;align=left;verticalAlign=middle;spacingTop=-1;spacingLeft=3;spacingRight=3;rotatable=0;labelPosition=right;points=[];portConstraint=eastwest;strokeColor=inherit;" parent="6NU6iWtaKqasOhbTZYST-116" vertex="1">
          <mxGeometry y="200" width="160" height="8" as="geometry" />
        </mxCell>
        <mxCell id="6NU6iWtaKqasOhbTZYST-119" value="accept()&lt;br&gt;close()&lt;br&gt;create_engine()&lt;br&gt;create_socket()&lt;br&gt;filter()&lt;br&gt;get_local_address()&lt;br&gt;get_socket_name()&lt;br&gt;in_event()&lt;br&gt;new()&lt;br&gt;process_plug()&lt;br&gt;process_term()&lt;br&gt;set_local_address()" style="text;strokeColor=none;fillColor=none;align=left;verticalAlign=top;spacingLeft=4;spacingRight=4;overflow=hidden;rotatable=0;points=[[0,0.5],[1,0.5]];portConstraint=eastwest;whiteSpace=wrap;html=1;" parent="6NU6iWtaKqasOhbTZYST-116" vertex="1">
          <mxGeometry y="208" width="160" height="182" as="geometry" />
        </mxCell>
        <mxCell id="6NU6iWtaKqasOhbTZYST-120" value="ZmqMailbox" style="swimlane;fontStyle=1;align=center;verticalAlign=top;childLayout=stackLayout;horizontal=1;startSize=26;horizontalStack=0;resizeParent=1;resizeParentMax=0;resizeLast=0;collapsible=1;marginBottom=0;whiteSpace=wrap;html=1;" parent="WIyWlLk6GJQsqaUBKTNV-1" vertex="1">
          <mxGeometry x="2080" y="1680" width="160" height="220" as="geometry" />
        </mxCell>
        <mxCell id="6NU6iWtaKqasOhbTZYST-121" value="active&lt;br&gt;cpipe: Ypipe&amp;lt;ZmqCommand&amp;gt;&lt;br&gt;signaler: ZmqSignaler&lt;br&gt;sync: Mutex&amp;lt;()&amp;gt;&lt;br&gt;" style="text;strokeColor=none;fillColor=none;align=left;verticalAlign=top;spacingLeft=4;spacingRight=4;overflow=hidden;rotatable=0;points=[[0,0.5],[1,0.5]];portConstraint=eastwest;whiteSpace=wrap;html=1;" parent="6NU6iWtaKqasOhbTZYST-120" vertex="1">
          <mxGeometry y="26" width="160" height="84" as="geometry" />
        </mxCell>
        <mxCell id="6NU6iWtaKqasOhbTZYST-122" value="" style="line;strokeWidth=1;fillColor=none;align=left;verticalAlign=middle;spacingTop=-1;spacingLeft=3;spacingRight=3;rotatable=0;labelPosition=right;points=[];portConstraint=eastwest;strokeColor=inherit;" parent="6NU6iWtaKqasOhbTZYST-120" vertex="1">
          <mxGeometry y="110" width="160" height="8" as="geometry" />
        </mxCell>
        <mxCell id="6NU6iWtaKqasOhbTZYST-123" value="forked()&lt;br&gt;get_fd()&lt;br&gt;new()&lt;br&gt;recv()&lt;br&gt;send()&lt;br&gt;valid()" style="text;strokeColor=none;fillColor=none;align=left;verticalAlign=top;spacingLeft=4;spacingRight=4;overflow=hidden;rotatable=0;points=[[0,0.5],[1,0.5]];portConstraint=eastwest;whiteSpace=wrap;html=1;" parent="6NU6iWtaKqasOhbTZYST-120" vertex="1">
          <mxGeometry y="118" width="160" height="102" as="geometry" />
        </mxCell>
        <mxCell id="6NU6iWtaKqasOhbTZYST-124" value="ZmqMailboxSafe" style="swimlane;fontStyle=1;align=center;verticalAlign=top;childLayout=stackLayout;horizontal=1;startSize=26;horizontalStack=0;resizeParent=1;resizeParentMax=0;resizeLast=0;collapsible=1;marginBottom=0;whiteSpace=wrap;html=1;" parent="WIyWlLk6GJQsqaUBKTNV-1" vertex="1">
          <mxGeometry x="2080" y="1920" width="160" height="200" as="geometry" />
        </mxCell>
        <mxCell id="6NU6iWtaKqasOhbTZYST-125" value="cond_var&lt;br&gt;signalers&lt;br&gt;sync" style="text;strokeColor=none;fillColor=none;align=left;verticalAlign=top;spacingLeft=4;spacingRight=4;overflow=hidden;rotatable=0;points=[[0,0.5],[1,0.5]];portConstraint=eastwest;whiteSpace=wrap;html=1;" parent="6NU6iWtaKqasOhbTZYST-124" vertex="1">
          <mxGeometry y="26" width="160" height="54" as="geometry" />
        </mxCell>
        <mxCell id="6NU6iWtaKqasOhbTZYST-126" value="" style="line;strokeWidth=1;fillColor=none;align=left;verticalAlign=middle;spacingTop=-1;spacingLeft=3;spacingRight=3;rotatable=0;labelPosition=right;points=[];portConstraint=eastwest;strokeColor=inherit;" parent="6NU6iWtaKqasOhbTZYST-124" vertex="1">
          <mxGeometry y="80" width="160" height="8" as="geometry" />
        </mxCell>
        <mxCell id="6NU6iWtaKqasOhbTZYST-127" value="add_signaler()&lt;br&gt;clear_signalers()&lt;br&gt;forked()&lt;br&gt;new()&lt;br&gt;recv()&lt;br&gt;remove_signaler()&lt;br&gt;send()" style="text;strokeColor=none;fillColor=none;align=left;verticalAlign=top;spacingLeft=4;spacingRight=4;overflow=hidden;rotatable=0;points=[[0,0.5],[1,0.5]];portConstraint=eastwest;whiteSpace=wrap;html=1;" parent="6NU6iWtaKqasOhbTZYST-124" vertex="1">
          <mxGeometry y="88" width="160" height="112" as="geometry" />
        </mxCell>
        <mxCell id="6NU6iWtaKqasOhbTZYST-128" value="ZmqMechanism" style="swimlane;fontStyle=1;align=center;verticalAlign=top;childLayout=stackLayout;horizontal=1;startSize=26;horizontalStack=0;resizeParent=1;resizeParentMax=0;resizeLast=0;collapsible=1;marginBottom=0;whiteSpace=wrap;html=1;" parent="WIyWlLk6GJQsqaUBKTNV-1" vertex="1">
          <mxGeometry x="2080" y="2160" width="250" height="300" as="geometry" />
        </mxCell>
        <mxCell id="6NU6iWtaKqasOhbTZYST-129" value="routing_id: Vec&amp;lt;u8&amp;gt;&lt;br&gt;user_id: Vec&amp;lt;u8&amp;gt;&lt;br&gt;zap_properties: HashMap&amp;lt;String,String&amp;gt;&lt;br&gt;zmtp_properties: HashMap&amp;lt;String, String&amp;gt;" style="text;strokeColor=none;fillColor=none;align=left;verticalAlign=top;spacingLeft=4;spacingRight=4;overflow=hidden;rotatable=0;points=[[0,0.5],[1,0.5]];portConstraint=eastwest;whiteSpace=wrap;html=1;" parent="6NU6iWtaKqasOhbTZYST-128" vertex="1">
          <mxGeometry y="26" width="250" height="74" as="geometry" />
        </mxCell>
        <mxCell id="6NU6iWtaKqasOhbTZYST-130" value="" style="line;strokeWidth=1;fillColor=none;align=left;verticalAlign=middle;spacingTop=-1;spacingLeft=3;spacingRight=3;rotatable=0;labelPosition=right;points=[];portConstraint=eastwest;strokeColor=inherit;" parent="6NU6iWtaKqasOhbTZYST-128" vertex="1">
          <mxGeometry y="100" width="250" height="8" as="geometry" />
        </mxCell>
        <mxCell id="6NU6iWtaKqasOhbTZYST-131" value="add_basic_properties()&lt;br&gt;add_property()&lt;br&gt;basic_properties_len()&lt;br&gt;check_socket_type()&lt;br&gt;get_user_id()&lt;br&gt;make_command_with_basic_properties()&lt;br&gt;new()&lt;br&gt;parse_metadata()&lt;br&gt;peer_routing_id()&lt;br&gt;property_len()&lt;br&gt;set_peer_routing()&lt;br&gt;set_user_id()" style="text;strokeColor=none;fillColor=none;align=left;verticalAlign=top;spacingLeft=4;spacingRight=4;overflow=hidden;rotatable=0;points=[[0,0.5],[1,0.5]];portConstraint=eastwest;whiteSpace=wrap;html=1;" parent="6NU6iWtaKqasOhbTZYST-128" vertex="1">
          <mxGeometry y="108" width="250" height="192" as="geometry" />
        </mxCell>
        <mxCell id="6NU6iWtaKqasOhbTZYST-132" value="ZmqMechanismBase" style="swimlane;fontStyle=1;align=center;verticalAlign=top;childLayout=stackLayout;horizontal=1;startSize=26;horizontalStack=0;resizeParent=1;resizeParentMax=0;resizeLast=0;collapsible=1;marginBottom=0;whiteSpace=wrap;html=1;" parent="WIyWlLk6GJQsqaUBKTNV-1" vertex="1">
          <mxGeometry x="2080" y="2500" width="190" height="150" as="geometry" />
        </mxCell>
        <mxCell id="6NU6iWtaKqasOhbTZYST-133" value="mechanism: ZmqMechanism&lt;br&gt;session: ZmqSessionBase" style="text;strokeColor=none;fillColor=none;align=left;verticalAlign=top;spacingLeft=4;spacingRight=4;overflow=hidden;rotatable=0;points=[[0,0.5],[1,0.5]];portConstraint=eastwest;whiteSpace=wrap;html=1;" parent="6NU6iWtaKqasOhbTZYST-132" vertex="1">
          <mxGeometry y="26" width="190" height="44" as="geometry" />
        </mxCell>
        <mxCell id="6NU6iWtaKqasOhbTZYST-134" value="" style="line;strokeWidth=1;fillColor=none;align=left;verticalAlign=middle;spacingTop=-1;spacingLeft=3;spacingRight=3;rotatable=0;labelPosition=right;points=[];portConstraint=eastwest;strokeColor=inherit;" parent="6NU6iWtaKqasOhbTZYST-132" vertex="1">
          <mxGeometry y="70" width="190" height="8" as="geometry" />
        </mxCell>
        <mxCell id="6NU6iWtaKqasOhbTZYST-135" value="check_basic_command_structure()&lt;br&gt;handle_error_reason()&lt;br&gt;new()&lt;br&gt;zap_required()" style="text;strokeColor=none;fillColor=none;align=left;verticalAlign=top;spacingLeft=4;spacingRight=4;overflow=hidden;rotatable=0;points=[[0,0.5],[1,0.5]];portConstraint=eastwest;whiteSpace=wrap;html=1;" parent="6NU6iWtaKqasOhbTZYST-132" vertex="1">
          <mxGeometry y="78" width="190" height="72" as="geometry" />
        </mxCell>
        <mxCell id="6NU6iWtaKqasOhbTZYST-136" value="ZmqMessage" style="swimlane;fontStyle=1;align=center;verticalAlign=top;childLayout=stackLayout;horizontal=1;startSize=26;horizontalStack=0;resizeParent=1;resizeParentMax=0;resizeLast=0;collapsible=1;marginBottom=0;whiteSpace=wrap;html=1;" parent="WIyWlLk6GJQsqaUBKTNV-1" vertex="1">
          <mxGeometry x="-810" y="39" width="210" height="910" as="geometry" />
        </mxCell>
        <mxCell id="6NU6iWtaKqasOhbTZYST-137" value="content: ZmqContent&lt;br&gt;data: [u8;{}]&lt;br&gt;flags: u8&lt;br&gt;group: String&lt;br&gt;group_type: u8&lt;br&gt;lgroup: GroupLGroup&lt;br&gt;metadata: Option&amp;lt;ZmqMetadata&amp;gt;&lt;br&gt;mes_type: u8&lt;br&gt;raw: Vec&amp;lt;u8&amp;gt;&lt;br&gt;refcnt: AtomicU64&lt;br&gt;routing_id: u32&lt;br&gt;sgroup: GroupSgroup&lt;br&gt;size: usize&lt;br&gt;top_msg_type: MessageType&lt;br&gt;type_: u8" style="text;strokeColor=none;fillColor=none;align=left;verticalAlign=top;spacingLeft=4;spacingRight=4;overflow=hidden;rotatable=0;points=[[0,0.5],[1,0.5]];portConstraint=eastwest;whiteSpace=wrap;html=1;" parent="6NU6iWtaKqasOhbTZYST-136" vertex="1">
          <mxGeometry y="26" width="210" height="234" as="geometry" />
        </mxCell>
        <mxCell id="6NU6iWtaKqasOhbTZYST-138" value="" style="line;strokeWidth=1;fillColor=none;align=left;verticalAlign=middle;spacingTop=-1;spacingLeft=3;spacingRight=3;rotatable=0;labelPosition=right;points=[];portConstraint=eastwest;strokeColor=inherit;" parent="6NU6iWtaKqasOhbTZYST-136" vertex="1">
          <mxGeometry y="260" width="210" height="8" as="geometry" />
        </mxCell>
        <mxCell id="6NU6iWtaKqasOhbTZYST-139" value="check()&lt;br&gt;close()&lt;br&gt;command_body()&lt;br&gt;command_body_size()&lt;br&gt;data()&lt;br&gt;data_mut()&lt;br&gt;flag_set()&lt;br&gt;flags()&lt;br&gt;group()&lt;br&gt;init()&lt;br&gt;init2()&lt;br&gt;init_buffer()&lt;br&gt;init_cancel()&lt;br&gt;init_data()&lt;br&gt;init_delimiter()&lt;br&gt;init_external_storage()&lt;br&gt;init_join()&lt;br&gt;init_leave()&lt;br&gt;init_size()&lt;br&gt;init_subscribe()&lt;br&gt;is_close_cmd()&lt;br&gt;is_cmsg()&lt;br&gt;is_credential()&lt;br&gt;is_delimiter()&lt;br&gt;is_join()&lt;br&gt;is_leave()&lt;br&gt;is_lmsg()&lt;br&gt;is_ping()&lt;br&gt;is_pong()&lt;br&gt;is_routing_id()&lt;br&gt;is_vsm()&lt;br&gt;is_zcmsg()&lt;br&gt;metadata()&lt;br&gt;refcnt()&lt;br&gt;reset_flags()&lt;br&gt;reset_metadata()&lt;br&gt;reset_routing_id()&lt;br&gt;set_flags()&lt;br&gt;set_group()&lt;br&gt;set_group2()&lt;br&gt;set_metadata()&lt;br&gt;set_routing_id()&lt;br&gt;shrink()&lt;br&gt;size()" style="text;strokeColor=none;fillColor=none;align=left;verticalAlign=top;spacingLeft=4;spacingRight=4;overflow=hidden;rotatable=0;points=[[0,0.5],[1,0.5]];portConstraint=eastwest;whiteSpace=wrap;html=1;" parent="6NU6iWtaKqasOhbTZYST-136" vertex="1">
          <mxGeometry y="268" width="210" height="642" as="geometry" />
        </mxCell>
        <mxCell id="0" value="ZmqMetadata" style="swimlane;fontStyle=1;align=center;verticalAlign=top;childLayout=stackLayout;horizontal=1;startSize=26;horizontalStack=0;resizeParent=1;resizeParentMax=0;resizeLast=0;collapsible=1;marginBottom=0;" parent="WIyWlLk6GJQsqaUBKTNV-1" vertex="1">
          <mxGeometry x="2080" y="2720" width="210" height="150" as="geometry" />
        </mxCell>
        <mxCell id="1" value="_dict: HashMap&lt;String,String&gt;&#xa;_ref_cnt: AtomicU64" style="text;strokeColor=none;fillColor=none;align=left;verticalAlign=top;spacingLeft=4;spacingRight=4;overflow=hidden;rotatable=0;points=[[0,0.5],[1,0.5]];portConstraint=eastwest;" parent="0" vertex="1">
          <mxGeometry y="26" width="210" height="44" as="geometry" />
        </mxCell>
        <mxCell id="2" value="" style="line;strokeWidth=1;fillColor=none;align=left;verticalAlign=middle;spacingTop=-1;spacingLeft=3;spacingRight=3;rotatable=0;labelPosition=right;points=[];portConstraint=eastwest;strokeColor=inherit;" parent="0" vertex="1">
          <mxGeometry y="70" width="210" height="8" as="geometry" />
        </mxCell>
        <mxCell id="3" value="get()&#xa;new()&#xa;add_ref()&#xa;drop_ref()" style="text;strokeColor=none;fillColor=none;align=left;verticalAlign=top;spacingLeft=4;spacingRight=4;overflow=hidden;rotatable=0;points=[[0,0.5],[1,0.5]];portConstraint=eastwest;" parent="0" vertex="1">
          <mxGeometry y="78" width="210" height="72" as="geometry" />
        </mxCell>
        <mxCell id="9" value="NormRxStreamState" style="swimlane;fontStyle=1;align=center;verticalAlign=top;childLayout=stackLayout;horizontal=1;startSize=26;horizontalStack=0;resizeParent=1;resizeParentMax=0;resizeLast=0;collapsible=1;marginBottom=0;" parent="WIyWlLk6GJQsqaUBKTNV-1" vertex="1">
          <mxGeometry x="2640" y="40" width="160" height="240" as="geometry" />
        </mxCell>
        <mxCell id="10" value="max_msg_size:i64&#xa;zero_copy: bool&#xa;in_batch_size: i32&#xa;in_sync: bool&#xa;rx_ready: bool&#xa;zmq_decoder: option&lt;ZmqV2Decoder&gt;&#xa;skip_norm_sync: bool&#xa;buffer_ptr: Option&lt;Vec&lt;u8&gt;&gt;&#xa;buffer_size: usize&#xa;buffer_count: usize&#xa;" style="text;strokeColor=none;fillColor=none;align=left;verticalAlign=top;spacingLeft=4;spacingRight=4;overflow=hidden;rotatable=0;points=[[0,0.5],[1,0.5]];portConstraint=eastwest;" parent="9" vertex="1">
          <mxGeometry y="26" width="160" height="154" as="geometry" />
        </mxCell>
        <mxCell id="11" value="" style="line;strokeWidth=1;fillColor=none;align=left;verticalAlign=middle;spacingTop=-1;spacingLeft=3;spacingRight=3;rotatable=0;labelPosition=right;points=[];portConstraint=eastwest;strokeColor=inherit;" parent="9" vertex="1">
          <mxGeometry y="180" width="160" height="8" as="geometry" />
        </mxCell>
        <mxCell id="12" value="new()&#xa;init()&#xa;decode()" style="text;strokeColor=none;fillColor=none;align=left;verticalAlign=top;spacingLeft=4;spacingRight=4;overflow=hidden;rotatable=0;points=[[0,0.5],[1,0.5]];portConstraint=eastwest;" parent="9" vertex="1">
          <mxGeometry y="188" width="160" height="52" as="geometry" />
        </mxCell>
        <mxCell id="13" value="Norm&#xa;norm_shutdown()&#xa;norm_init()&#xa;norm_plug()&#xa;norm_terminate()&#xa;norm_restart_input()&#xa;norm_in_event()&#xa;norm_unplug()&#xa;norm_send_data()&#xa;norm_recv_data()&#xa;" style="shape=module;align=left;spacingLeft=20;align=center;verticalAlign=top;whiteSpace=wrap;" parent="WIyWlLk6GJQsqaUBKTNV-1" vertex="1">
          <mxGeometry x="2840" y="43" width="175" height="167" as="geometry" />
        </mxCell>
        <mxCell id="6qAbQGqqdCxAd6zhe32K-13" value="ZmqNullMechanism" style="swimlane;fontStyle=1;align=center;verticalAlign=top;childLayout=stackLayout;horizontal=1;startSize=26;horizontalStack=0;resizeParent=1;resizeParentMax=0;resizeLast=0;collapsible=1;marginBottom=0;whiteSpace=wrap;html=1;" parent="WIyWlLk6GJQsqaUBKTNV-1" vertex="1">
          <mxGeometry x="3060" y="48" width="190" height="280" as="geometry" />
        </mxCell>
        <mxCell id="6qAbQGqqdCxAd6zhe32K-14" value="mechanism_base&lt;br&gt;ready_command-sent&lt;br&gt;error_command_sent&lt;br&gt;zap_request_sent&lt;br&gt;zap_reply_received&lt;br&gt;process_ready_command&lt;br&gt;process_error_command" style="text;strokeColor=none;fillColor=none;align=left;verticalAlign=top;spacingLeft=4;spacingRight=4;overflow=hidden;rotatable=0;points=[[0,0.5],[1,0.5]];portConstraint=eastwest;whiteSpace=wrap;html=1;" parent="6qAbQGqqdCxAd6zhe32K-13" vertex="1">
          <mxGeometry y="26" width="190" height="114" as="geometry" />
        </mxCell>
        <mxCell id="6qAbQGqqdCxAd6zhe32K-15" value="" style="line;strokeWidth=1;fillColor=none;align=left;verticalAlign=middle;spacingTop=-1;spacingLeft=3;spacingRight=3;rotatable=0;labelPosition=right;points=[];portConstraint=eastwest;strokeColor=inherit;" parent="6qAbQGqqdCxAd6zhe32K-13" vertex="1">
          <mxGeometry y="140" width="190" height="8" as="geometry" />
        </mxCell>
        <mxCell id="6qAbQGqqdCxAd6zhe32K-16" value="new()&lt;br&gt;next_handshake_command()&lt;br&gt;process_handshake_command()&lt;br&gt;process_ready_command()&lt;br&gt;process_error_command()&lt;br&gt;zap_msg_available()&lt;br&gt;status()&lt;br&gt;send_zap_request()&lt;br&gt;" style="text;strokeColor=none;fillColor=none;align=left;verticalAlign=top;spacingLeft=4;spacingRight=4;overflow=hidden;rotatable=0;points=[[0,0.5],[1,0.5]];portConstraint=eastwest;whiteSpace=wrap;html=1;" parent="6qAbQGqqdCxAd6zhe32K-13" vertex="1">
          <mxGeometry y="148" width="190" height="132" as="geometry" />
        </mxCell>
        <mxCell id="6qAbQGqqdCxAd6zhe32K-17" value="ZmqObject" style="swimlane;fontStyle=1;align=center;verticalAlign=top;childLayout=stackLayout;horizontal=1;startSize=26;horizontalStack=0;resizeParent=1;resizeParentMax=0;resizeLast=0;collapsible=1;marginBottom=0;whiteSpace=wrap;html=1;" parent="WIyWlLk6GJQsqaUBKTNV-1" vertex="1">
          <mxGeometry x="3300" y="48" width="200" height="640" as="geometry" />
        </mxCell>
        <mxCell id="6qAbQGqqdCxAd6zhe32K-19" value="" style="line;strokeWidth=1;fillColor=none;align=left;verticalAlign=middle;spacingTop=-1;spacingLeft=3;spacingRight=3;rotatable=0;labelPosition=right;points=[];portConstraint=eastwest;strokeColor=inherit;" parent="6qAbQGqqdCxAd6zhe32K-17" vertex="1">
          <mxGeometry y="26" width="200" height="8" as="geometry" />
        </mxCell>
        <mxCell id="6qAbQGqqdCxAd6zhe32K-20" value="set_ctx()&lt;br&gt;process_command()&lt;br&gt;log()&lt;br&gt;send_own()&lt;br&gt;send_attach()&lt;br&gt;send_activate_read()&lt;br&gt;send_activate_write()&lt;br&gt;send_hiccup&lt;br&gt;send_pipe_peer_stats()&lt;br&gt;send_pipe_stats_publish()&lt;br&gt;send_pipe_term()&lt;br&gt;send_pipe_term_ack()&lt;br&gt;send_pipe_hwm()&lt;br&gt;send_term_req()&lt;br&gt;send_term()&lt;br&gt;send_term_ack()&lt;br&gt;send_term_endpoint()&lt;br&gt;send_reap()&lt;br&gt;send_done()&lt;br&gt;send_conn_failed()&lt;br&gt;process_stop()&lt;br&gt;process_plug()&lt;br&gt;process_own()&lt;br&gt;porocess_attached()&lt;br&gt;process_bind()&lt;br&gt;process_activate_read()&lt;br&gt;process_activate_write()&lt;br&gt;process_hiccup()&lt;br&gt;process_pipe_peer_stats()&lt;br&gt;process_pipe_stats_publish()&lt;br&gt;process_pipe_term()&lt;br&gt;process_pipe_hwm()&lt;br&gt;process_term_req()&lt;br&gt;process_term()&lt;br&gt;process_term_ack()&lt;br&gt;process_term_endpoint()&lt;br&gt;process_reaped()&lt;br&gt;process_reap()&lt;br&gt;process_conn_failed()&lt;br&gt;process_seqnum()&lt;br&gt;send_command()" style="text;strokeColor=none;fillColor=none;align=left;verticalAlign=top;spacingLeft=4;spacingRight=4;overflow=hidden;rotatable=0;points=[[0,0.5],[1,0.5]];portConstraint=eastwest;whiteSpace=wrap;html=1;" parent="6qAbQGqqdCxAd6zhe32K-17" vertex="1">
          <mxGeometry y="34" width="200" height="606" as="geometry" />
        </mxCell>
        <mxCell id="KRFL9_BNYJd5pwZG4S-C-13" value="ZmqOps" style="swimlane;fontStyle=0;childLayout=stackLayout;horizontal=1;startSize=26;fillColor=none;horizontalStack=0;resizeParent=1;resizeParentMax=0;resizeLast=0;collapsible=1;marginBottom=0;whiteSpace=wrap;html=1;" vertex="1" parent="WIyWlLk6GJQsqaUBKTNV-1">
          <mxGeometry x="3580" y="48" width="140" height="1230" as="geometry" />
        </mxCell>
        <mxCell id="KRFL9_BNYJd5pwZG4S-C-14" value="as_socket_base()&lt;br&gt;as_zmq_peer()&lt;br&gt;check_events()&lt;br&gt;check_poller()&lt;br&gt;check_poller_fd_registration_args()&lt;br&gt;s_recvmsg()&lt;br&gt;s_sendmsg()&lt;br&gt;zmq_bind()&lt;br&gt;zmq_close()&lt;br&gt;zmq_connect()&lt;br&gt;zmq_connect_peer()&lt;br&gt;zmq_ctx_destroy()&lt;br&gt;zma_ctx_get()&lt;br&gt;zmq_ctx_get_ext()&lt;br&gt;zmq_ctx_new()&lt;br&gt;zmq_ctx_set()&lt;br&gt;zmq_ctx_set_ext()&lt;br&gt;zmq_ctx_shutdown()&lt;br&gt;zmq_ctx_term()&lt;br&gt;zmq_disconnect()&lt;br&gt;zmq_getsockopt()&lt;br&gt;zmq_has()&lt;br&gt;zmq_init()&lt;br&gt;zmq_join()&lt;br&gt;zmq_leave()&lt;br&gt;zmq_msg_close()&lt;br&gt;zmq_msg_get()&lt;br&gt;zmq_msg_gets()&lt;br&gt;zmq_msg_group()&lt;br&gt;zmq_msg_init()&lt;br&gt;zmq_msg_init_buffer()&lt;br&gt;zmq_msg_init_data()&lt;br&gt;zmq_msg_init_size()&lt;br&gt;zmq_msg_more()&lt;br&gt;zmq_msg_recv()&lt;br&gt;zmq_msg_routing_id()&lt;br&gt;zmq_msg_send()&lt;br&gt;zmq_msg_set()&lt;br&gt;zmq_msg_set_group()&lt;br&gt;zmq_msg_set_routing_id()&lt;br&gt;zmq_poll()&lt;br&gt;zmq_poll_build_select_fds_()&lt;br&gt;zmq_poll_check_items_()&lt;br&gt;zmq_poll_must_break_loop_()&lt;br&gt;zmq_poll_select_check_events_()&lt;br&gt;zmq_poll_select_set_timeout_()&lt;br&gt;zmq_poller_add()&lt;br&gt;zmq_poller_destroy()&lt;br&gt;zmq_poller_fd()&lt;br&gt;zmq_poller_modify()&lt;br&gt;zmq_poller_modify_()&lt;br&gt;zmq_poller_new()&lt;br&gt;zmq_poller_poll()&lt;br&gt;zmq_poller_remove()&lt;br&gt;zmq_poller_remove_fd()&lt;br&gt;zmq_poller_size()&lt;br&gt;zmq_poller_wait()&lt;br&gt;zmq_poller_wait_all()&lt;br&gt;zmq_ppoll()&lt;br&gt;zmq_proxy()&lt;br&gt;zmq_proxy_steerable()&lt;br&gt;zmq_recv()&lt;br&gt;zmq_recviov()&lt;br&gt;zmq_recvmsg()&lt;br&gt;zmq_send()&lt;br&gt;zmq_send_const()&lt;br&gt;zmq_sendiov()&lt;br&gt;zmq_sendmsg()&lt;br&gt;zmq_setsockopt()&lt;br&gt;zmq_socket()&lt;br&gt;zmq_socket_get_peer_state()&lt;br&gt;zmq_socket_monitor()&lt;br&gt;zmq_term()&lt;br&gt;zmq_timers_add()&lt;br&gt;zmq_timers_cancel()&lt;br&gt;zmq_timers_destroy()&lt;br&gt;zmq_timers_execute()&lt;br&gt;zmq_timers_new()&lt;br&gt;zmq_timers_reset()&lt;br&gt;zmq_timers_set_interval()&lt;br&gt;zmq_timers_timeout()&lt;br&gt;zmq_unbind()&lt;br&gt;zmq_version()&lt;br&gt;" style="text;strokeColor=none;fillColor=none;align=left;verticalAlign=top;spacingLeft=4;spacingRight=4;overflow=hidden;rotatable=0;points=[[0,0.5],[1,0.5]];portConstraint=eastwest;whiteSpace=wrap;html=1;" vertex="1" parent="KRFL9_BNYJd5pwZG4S-C-13">
          <mxGeometry y="26" width="140" height="1204" as="geometry" />
        </mxCell>
        <mxCell id="KRFL9_BNYJd5pwZG4S-C-17" value="ZmqOutPipe" style="swimlane;fontStyle=1;align=center;verticalAlign=top;childLayout=stackLayout;horizontal=1;startSize=26;horizontalStack=0;resizeParent=1;resizeParentMax=0;resizeLast=0;collapsible=1;marginBottom=0;whiteSpace=wrap;html=1;" vertex="1" parent="WIyWlLk6GJQsqaUBKTNV-1">
          <mxGeometry x="3880" y="43" width="160" height="78" as="geometry" />
        </mxCell>
        <mxCell id="KRFL9_BNYJd5pwZG4S-C-18" value="active: bool&lt;br&gt;pipe: ZmqPipe" style="text;strokeColor=none;fillColor=none;align=left;verticalAlign=top;spacingLeft=4;spacingRight=4;overflow=hidden;rotatable=0;points=[[0,0.5],[1,0.5]];portConstraint=eastwest;whiteSpace=wrap;html=1;" vertex="1" parent="KRFL9_BNYJd5pwZG4S-C-17">
          <mxGeometry y="26" width="160" height="44" as="geometry" />
        </mxCell>
        <mxCell id="KRFL9_BNYJd5pwZG4S-C-19" value="" style="line;strokeWidth=1;fillColor=none;align=left;verticalAlign=middle;spacingTop=-1;spacingLeft=3;spacingRight=3;rotatable=0;labelPosition=right;points=[];portConstraint=eastwest;strokeColor=inherit;" vertex="1" parent="KRFL9_BNYJd5pwZG4S-C-17">
          <mxGeometry y="70" width="160" height="8" as="geometry" />
        </mxCell>
        <mxCell id="KRFL9_BNYJd5pwZG4S-C-21" value="ZmqOwn" style="swimlane;fontStyle=1;align=center;verticalAlign=top;childLayout=stackLayout;horizontal=1;startSize=26;horizontalStack=0;resizeParent=1;resizeParentMax=0;resizeLast=0;collapsible=1;marginBottom=0;whiteSpace=wrap;html=1;" vertex="1" parent="WIyWlLk6GJQsqaUBKTNV-1">
          <mxGeometry x="4200" y="41" width="160" height="380" as="geometry" />
        </mxCell>
        <mxCell id="KRFL9_BNYJd5pwZG4S-C-22" value="processed_seqnum: u64&lt;br&gt;sent_seqnum: AtomicU64&lt;br&gt;term_acks: u32&lt;br&gt;terminating: bool&lt;br&gt;tid: u32" style="text;strokeColor=none;fillColor=none;align=left;verticalAlign=top;spacingLeft=4;spacingRight=4;overflow=hidden;rotatable=0;points=[[0,0.5],[1,0.5]];portConstraint=eastwest;whiteSpace=wrap;html=1;" vertex="1" parent="KRFL9_BNYJd5pwZG4S-C-21">
          <mxGeometry y="26" width="160" height="84" as="geometry" />
        </mxCell>
        <mxCell id="KRFL9_BNYJd5pwZG4S-C-23" value="" style="line;strokeWidth=1;fillColor=none;align=left;verticalAlign=middle;spacingTop=-1;spacingLeft=3;spacingRight=3;rotatable=0;labelPosition=right;points=[];portConstraint=eastwest;strokeColor=inherit;" vertex="1" parent="KRFL9_BNYJd5pwZG4S-C-21">
          <mxGeometry y="110" width="160" height="8" as="geometry" />
        </mxCell>
        <mxCell id="KRFL9_BNYJd5pwZG4S-C-24" value="check_term_acks()&lt;br&gt;inc_seqnum()&lt;br&gt;is_terminating()&lt;br&gt;launch_child()&lt;br&gt;new()&lt;br&gt;new2()&lt;br&gt;process_destroy()&lt;br&gt;process_own()&lt;br&gt;process_seqnum()&lt;br&gt;process_term()&lt;br&gt;process_term_ack()&lt;br&gt;process_term_req()&lt;br&gt;register_term_acks()&lt;br&gt;set_owner()&lt;br&gt;term_child()&lt;br&gt;terminate()&lt;br&gt;unregister_term_ack()" style="text;strokeColor=none;fillColor=none;align=left;verticalAlign=top;spacingLeft=4;spacingRight=4;overflow=hidden;rotatable=0;points=[[0,0.5],[1,0.5]];portConstraint=eastwest;whiteSpace=wrap;html=1;" vertex="1" parent="KRFL9_BNYJd5pwZG4S-C-21">
          <mxGeometry y="118" width="160" height="262" as="geometry" />
        </mxCell>
        <mxCell id="KRFL9_BNYJd5pwZG4S-C-25" value="ZmqPair" style="swimlane;fontStyle=1;align=center;verticalAlign=top;childLayout=stackLayout;horizontal=1;startSize=26;horizontalStack=0;resizeParent=1;resizeParentMax=0;resizeLast=0;collapsible=1;marginBottom=0;whiteSpace=wrap;html=1;" vertex="1" parent="WIyWlLk6GJQsqaUBKTNV-1">
          <mxGeometry x="320" y="3320" width="160" height="220" as="geometry" />
        </mxCell>
        <mxCell id="KRFL9_BNYJd5pwZG4S-C-26" value="pipe: Option&amp;lt;ZmqPipe&amp;gt;&lt;br&gt;socket_base: ZmqSocket&lt;br&gt;" style="text;strokeColor=none;fillColor=none;align=left;verticalAlign=top;spacingLeft=4;spacingRight=4;overflow=hidden;rotatable=0;points=[[0,0.5],[1,0.5]];portConstraint=eastwest;whiteSpace=wrap;html=1;" vertex="1" parent="KRFL9_BNYJd5pwZG4S-C-25">
          <mxGeometry y="26" width="160" height="44" as="geometry" />
        </mxCell>
        <mxCell id="KRFL9_BNYJd5pwZG4S-C-27" value="" style="line;strokeWidth=1;fillColor=none;align=left;verticalAlign=middle;spacingTop=-1;spacingLeft=3;spacingRight=3;rotatable=0;labelPosition=right;points=[];portConstraint=eastwest;strokeColor=inherit;" vertex="1" parent="KRFL9_BNYJd5pwZG4S-C-25">
          <mxGeometry y="70" width="160" height="8" as="geometry" />
        </mxCell>
        <mxCell id="KRFL9_BNYJd5pwZG4S-C-28" value="new()&lt;br&gt;xattach_pipe()&lt;br&gt;xhas_in()&lt;br&gt;xhas_out()&lt;br&gt;xpipe_terminated()&lt;br&gt;xread_activated()&lt;br&gt;xrecv()&lt;br&gt;xsend()&lt;br&gt;xwrite_activated()" style="text;strokeColor=none;fillColor=none;align=left;verticalAlign=top;spacingLeft=4;spacingRight=4;overflow=hidden;rotatable=0;points=[[0,0.5],[1,0.5]];portConstraint=eastwest;whiteSpace=wrap;html=1;" vertex="1" parent="KRFL9_BNYJd5pwZG4S-C-25">
          <mxGeometry y="78" width="160" height="142" as="geometry" />
        </mxCell>
        <mxCell id="KRFL9_BNYJd5pwZG4S-C-29" value="ZmqPeer" style="swimlane;fontStyle=1;align=center;verticalAlign=top;childLayout=stackLayout;horizontal=1;startSize=26;horizontalStack=0;resizeParent=1;resizeParentMax=0;resizeLast=0;collapsible=1;marginBottom=0;whiteSpace=wrap;html=1;" vertex="1" parent="WIyWlLk6GJQsqaUBKTNV-1">
          <mxGeometry x="320" y="3602" width="160" height="120" as="geometry" />
        </mxCell>
        <mxCell id="KRFL9_BNYJd5pwZG4S-C-30" value="peer_last_routing_id&lt;br&gt;server: ZmqServer" style="text;strokeColor=none;fillColor=none;align=left;verticalAlign=top;spacingLeft=4;spacingRight=4;overflow=hidden;rotatable=0;points=[[0,0.5],[1,0.5]];portConstraint=eastwest;whiteSpace=wrap;html=1;" vertex="1" parent="KRFL9_BNYJd5pwZG4S-C-29">
          <mxGeometry y="26" width="160" height="34" as="geometry" />
        </mxCell>
        <mxCell id="KRFL9_BNYJd5pwZG4S-C-31" value="" style="line;strokeWidth=1;fillColor=none;align=left;verticalAlign=middle;spacingTop=-1;spacingLeft=3;spacingRight=3;rotatable=0;labelPosition=right;points=[];portConstraint=eastwest;strokeColor=inherit;" vertex="1" parent="KRFL9_BNYJd5pwZG4S-C-29">
          <mxGeometry y="60" width="160" height="8" as="geometry" />
        </mxCell>
        <mxCell id="KRFL9_BNYJd5pwZG4S-C-32" value="connect_peer()&lt;br&gt;new()&lt;br&gt;xattach_pipe()" style="text;strokeColor=none;fillColor=none;align=left;verticalAlign=top;spacingLeft=4;spacingRight=4;overflow=hidden;rotatable=0;points=[[0,0.5],[1,0.5]];portConstraint=eastwest;whiteSpace=wrap;html=1;" vertex="1" parent="KRFL9_BNYJd5pwZG4S-C-29">
          <mxGeometry y="68" width="160" height="52" as="geometry" />
        </mxCell>
        <mxCell id="KRFL9_BNYJd5pwZG4S-C-33" value="PendingConnection" style="swimlane;fontStyle=1;align=center;verticalAlign=top;childLayout=stackLayout;horizontal=1;startSize=26;horizontalStack=0;resizeParent=1;resizeParentMax=0;resizeLast=0;collapsible=1;marginBottom=0;whiteSpace=wrap;html=1;" vertex="1" parent="WIyWlLk6GJQsqaUBKTNV-1">
          <mxGeometry x="4440" y="40" width="160" height="88" as="geometry" />
        </mxCell>
        <mxCell id="KRFL9_BNYJd5pwZG4S-C-34" value="bind_pipe: ZmqPipe&lt;br&gt;connect_pipe: ZmqPipe&lt;br&gt;endpoint: ZmqEndpoint" style="text;strokeColor=none;fillColor=none;align=left;verticalAlign=top;spacingLeft=4;spacingRight=4;overflow=hidden;rotatable=0;points=[[0,0.5],[1,0.5]];portConstraint=eastwest;whiteSpace=wrap;html=1;" vertex="1" parent="KRFL9_BNYJd5pwZG4S-C-33">
          <mxGeometry y="26" width="160" height="54" as="geometry" />
        </mxCell>
        <mxCell id="KRFL9_BNYJd5pwZG4S-C-35" value="" style="line;strokeWidth=1;fillColor=none;align=left;verticalAlign=middle;spacingTop=-1;spacingLeft=3;spacingRight=3;rotatable=0;labelPosition=right;points=[];portConstraint=eastwest;strokeColor=inherit;" vertex="1" parent="KRFL9_BNYJd5pwZG4S-C-33">
          <mxGeometry y="80" width="160" height="8" as="geometry" />
        </mxCell>
        <mxCell id="KRFL9_BNYJd5pwZG4S-C-37" value="ZmqPgmReceiver" style="swimlane;fontStyle=1;align=center;verticalAlign=top;childLayout=stackLayout;horizontal=1;startSize=26;horizontalStack=0;resizeParent=1;resizeParentMax=0;resizeLast=0;collapsible=1;marginBottom=0;whiteSpace=wrap;html=1;" vertex="1" parent="WIyWlLk6GJQsqaUBKTNV-1">
          <mxGeometry x="4675" y="41" width="250" height="380" as="geometry" />
        </mxCell>
        <mxCell id="KRFL9_BNYJd5pwZG4S-C-38" value="active_tsi: Option&amp;lt;pgm_tsi_t&amp;gt;&lt;br&gt;has_rx_timer: bool&lt;br&gt;inpos: *const u8&lt;br&gt;insize: usize&lt;br&gt;peers: HashMap&amp;lt;pgm_tsi_t, ZmqPeerInfo&amp;gt;&lt;br&gt;PgmSocket: pgm_socket&lt;br&gt;pipe_handle: Option&amp;lt;ZmqHandle&amp;gt;&lt;br&gt;session: ZmqSessionBase&lt;br&gt;socket_handle: Option&amp;lt;ZmqHandle&amp;gt;&lt;br&gt;zmq_io_object: ZmqIoObject" style="text;strokeColor=none;fillColor=none;align=left;verticalAlign=top;spacingLeft=4;spacingRight=4;overflow=hidden;rotatable=0;points=[[0,0.5],[1,0.5]];portConstraint=eastwest;whiteSpace=wrap;html=1;" vertex="1" parent="KRFL9_BNYJd5pwZG4S-C-37">
          <mxGeometry y="26" width="250" height="154" as="geometry" />
        </mxCell>
        <mxCell id="KRFL9_BNYJd5pwZG4S-C-39" value="" style="line;strokeWidth=1;fillColor=none;align=left;verticalAlign=middle;spacingTop=-1;spacingLeft=3;spacingRight=3;rotatable=0;labelPosition=right;points=[];portConstraint=eastwest;strokeColor=inherit;" vertex="1" parent="KRFL9_BNYJd5pwZG4S-C-37">
          <mxGeometry y="180" width="250" height="8" as="geometry" />
        </mxCell>
        <mxCell id="KRFL9_BNYJd5pwZG4S-C-40" value="drop_subscriptions()&lt;br&gt;get_endpoint()&lt;br&gt;in_event()&lt;br&gt;init()&lt;br&gt;new()&lt;br&gt;plug()&lt;br&gt;process_input()&lt;br&gt;restart_input()&lt;br&gt;restart_output()&lt;br&gt;terminate()&lt;br&gt;timer_event()&lt;br&gt;unplug()" style="text;strokeColor=none;fillColor=none;align=left;verticalAlign=top;spacingLeft=4;spacingRight=4;overflow=hidden;rotatable=0;points=[[0,0.5],[1,0.5]];portConstraint=eastwest;whiteSpace=wrap;html=1;" vertex="1" parent="KRFL9_BNYJd5pwZG4S-C-37">
          <mxGeometry y="188" width="250" height="192" as="geometry" />
        </mxCell>
        <mxCell id="KRFL9_BNYJd5pwZG4S-C-42" value="pgm_sender_t" style="swimlane;fontStyle=1;align=center;verticalAlign=top;childLayout=stackLayout;horizontal=1;startSize=26;horizontalStack=0;resizeParent=1;resizeParentMax=0;resizeLast=0;collapsible=1;marginBottom=0;whiteSpace=wrap;html=1;" vertex="1" parent="WIyWlLk6GJQsqaUBKTNV-1">
          <mxGeometry x="4675" y="920" width="160" height="490" as="geometry" />
        </mxCell>
        <mxCell id="KRFL9_BNYJd5pwZG4S-C-43" value="_empty_endpoint: EndpointUriPair&lt;br&gt;encoder: ZmqV1Encoder&lt;br&gt;handle: ZmqHandle&lt;br&gt;has_rx_timer: bool&lt;br&gt;has_tx_timer: bool&lt;br&gt;io_object: ZmqIoObject&lt;br&gt;more_flag: bool&lt;br&gt;msg: ZmqMessage&lt;br&gt;out_buffer: Vec&amp;lt;u8&amp;gt;&lt;br&gt;out_buffer_size: usize&lt;br&gt;pending_notify_handle: ZmqHandle&lt;br&gt;pgm_socket: &amp;lt;PgmSocket&amp;gt;&lt;br&gt;rdata_notify_handle: ZmqHandle&lt;br&gt;session: ZmqSessionBase&lt;br&gt;uplink_handle: ZmqHandle&lt;br&gt;write_size: usize" style="text;strokeColor=none;fillColor=none;align=left;verticalAlign=top;spacingLeft=4;spacingRight=4;overflow=hidden;rotatable=0;points=[[0,0.5],[1,0.5]];portConstraint=eastwest;whiteSpace=wrap;html=1;" vertex="1" parent="KRFL9_BNYJd5pwZG4S-C-42">
          <mxGeometry y="26" width="160" height="284" as="geometry" />
        </mxCell>
        <mxCell id="KRFL9_BNYJd5pwZG4S-C-44" value="" style="line;strokeWidth=1;fillColor=none;align=left;verticalAlign=middle;spacingTop=-1;spacingLeft=3;spacingRight=3;rotatable=0;labelPosition=right;points=[];portConstraint=eastwest;strokeColor=inherit;" vertex="1" parent="KRFL9_BNYJd5pwZG4S-C-42">
          <mxGeometry y="310" width="160" height="8" as="geometry" />
        </mxCell>
        <mxCell id="KRFL9_BNYJd5pwZG4S-C-45" value="get_endpoint()&lt;br&gt;in_event()&lt;br&gt;init()&lt;br&gt;new()&lt;br&gt;out_event()&lt;br&gt;plug()&lt;br&gt;restart_input()&lt;br&gt;restart_output()&lt;br&gt;terminate()&lt;br&gt;timer_event()&lt;br&gt;unplug()" style="text;strokeColor=none;fillColor=none;align=left;verticalAlign=top;spacingLeft=4;spacingRight=4;overflow=hidden;rotatable=0;points=[[0,0.5],[1,0.5]];portConstraint=eastwest;whiteSpace=wrap;html=1;" vertex="1" parent="KRFL9_BNYJd5pwZG4S-C-42">
          <mxGeometry y="318" width="160" height="172" as="geometry" />
        </mxCell>
        <mxCell id="KRFL9_BNYJd5pwZG4S-C-46" value="PgmSocket" style="swimlane;fontStyle=1;align=center;verticalAlign=top;childLayout=stackLayout;horizontal=1;startSize=26;horizontalStack=0;resizeParent=1;resizeParentMax=0;resizeLast=0;collapsible=1;marginBottom=0;whiteSpace=wrap;html=1;" vertex="1" parent="WIyWlLk6GJQsqaUBKTNV-1">
          <mxGeometry x="4675" y="480" width="160" height="370" as="geometry" />
        </mxCell>
        <mxCell id="KRFL9_BNYJd5pwZG4S-C-47" value="last_rx_status: i32&lt;br&gt;last_tx_status: i32&lt;br&gt;nbytes_processed: usize&lt;br&gt;nbytes_rec: usize&lt;br&gt;pgm_msgv: pgm_msgv_t&lt;br&gt;pgm_msgv_len: usize&lt;br&gt;pgm_msgv_processed: usize&lt;br&gt;receiver: bool&lt;br&gt;sock: pgm_sock_t" style="text;strokeColor=none;fillColor=none;align=left;verticalAlign=top;spacingLeft=4;spacingRight=4;overflow=hidden;rotatable=0;points=[[0,0.5],[1,0.5]];portConstraint=eastwest;whiteSpace=wrap;html=1;" vertex="1" parent="KRFL9_BNYJd5pwZG4S-C-46">
          <mxGeometry y="26" width="160" height="154" as="geometry" />
        </mxCell>
        <mxCell id="KRFL9_BNYJd5pwZG4S-C-48" value="" style="line;strokeWidth=1;fillColor=none;align=left;verticalAlign=middle;spacingTop=-1;spacingLeft=3;spacingRight=3;rotatable=0;labelPosition=right;points=[];portConstraint=eastwest;strokeColor=inherit;" vertex="1" parent="KRFL9_BNYJd5pwZG4S-C-46">
          <mxGeometry y="180" width="160" height="8" as="geometry" />
        </mxCell>
        <mxCell id="KRFL9_BNYJd5pwZG4S-C-49" value="compute_sqns()&lt;br&gt;get_max_tsdu_size()&lt;br&gt;get_receiver_fds()&lt;br&gt;get_rx_timeout()&lt;br&gt;get_sender_fds()&lt;br&gt;get_tix_timeout()&lt;br&gt;init()&lt;br&gt;init_address()&lt;br&gt;new()&lt;br&gt;process_upstream()&lt;br&gt;receive()&lt;br&gt;send()" style="text;strokeColor=none;fillColor=none;align=left;verticalAlign=top;spacingLeft=4;spacingRight=4;overflow=hidden;rotatable=0;points=[[0,0.5],[1,0.5]];portConstraint=eastwest;whiteSpace=wrap;html=1;" vertex="1" parent="KRFL9_BNYJd5pwZG4S-C-46">
          <mxGeometry y="188" width="160" height="182" as="geometry" />
        </mxCell>
        <mxCell id="KRFL9_BNYJd5pwZG4S-C-50" value="ZmqPipe" style="swimlane;fontStyle=1;align=center;verticalAlign=top;childLayout=stackLayout;horizontal=1;startSize=26;horizontalStack=0;resizeParent=1;resizeParentMax=0;resizeLast=0;collapsible=1;marginBottom=0;whiteSpace=wrap;html=1;" vertex="1" parent="WIyWlLk6GJQsqaUBKTNV-1">
          <mxGeometry x="3880" y="203" width="210" height="920" as="geometry" />
        </mxCell>
        <mxCell id="KRFL9_BNYJd5pwZG4S-C-51" value="_conflate: bool&lt;br&gt;_delay: bool&lt;br&gt;_disconnect_msg: ZmqMessage&lt;br&gt;_endpoint_pair: EndpointUriPair&lt;br&gt;_hwm: u32&lt;br&gt;_in_active: bool&lt;br&gt;_in_hwm_boost: u32&lt;br&gt;_in_pipe: VecDeque&amp;lt;ZmqMessage&amp;gt;&lt;br&gt;_lwm: u32&lt;br&gt;_msgs_read: u64&lt;br&gt;_msgs_written: u64&lt;br&gt;_out_active: bool&lt;br&gt;_out_hwm_boost: u32&lt;br&gt;_out_pipe: VecDeque(ZmqMessage&amp;gt;&lt;br&gt;_router_socket_routing_id: Vec&amp;lt;u8&amp;gt;&lt;br&gt;_server_socket_routing_id: i32" style="text;strokeColor=none;fillColor=none;align=left;verticalAlign=top;spacingLeft=4;spacingRight=4;overflow=hidden;rotatable=0;points=[[0,0.5],[1,0.5]];portConstraint=eastwest;whiteSpace=wrap;html=1;" vertex="1" parent="KRFL9_BNYJd5pwZG4S-C-50">
          <mxGeometry y="26" width="210" height="244" as="geometry" />
        </mxCell>
        <mxCell id="KRFL9_BNYJd5pwZG4S-C-52" value="" style="line;strokeWidth=1;fillColor=none;align=left;verticalAlign=middle;spacingTop=-1;spacingLeft=3;spacingRight=3;rotatable=0;labelPosition=right;points=[];portConstraint=eastwest;strokeColor=inherit;" vertex="1" parent="KRFL9_BNYJd5pwZG4S-C-50">
          <mxGeometry y="270" width="210" height="8" as="geometry" />
        </mxCell>
        <mxCell id="KRFL9_BNYJd5pwZG4S-C-53" value="check_hwm()&lt;br&gt;check_read()&lt;br&gt;check_write()&lt;br&gt;compute_lwm()&lt;br&gt;flush()&lt;br&gt;get_endpoint_pair()&lt;br&gt;get_routing_id()&lt;br&gt;get_server_socket_routing_id()&lt;br&gt;hiccup()&lt;br&gt;is_delimeter()&lt;br&gt;new()&lt;br&gt;pipe_erase()&lt;br&gt;pipe_index()&lt;br&gt;pipe_swap()&lt;br&gt;pipepair()&lt;br&gt;process_activate_read()&lt;br&gt;process_activate_write()&lt;br&gt;process_delimiter()&lt;br&gt;process_hiccup()&lt;br&gt;process_pipe_hwm()&lt;br&gt;process_pipe_peer_stats()&lt;br&gt;process_pipe_term()&lt;br&gt;process_pipe_term-ack()&lt;br&gt;read()&lt;br&gt;rollback()&lt;br&gt;send_disconnect_msg()&lt;br&gt;send_hiccup_msg()&lt;br&gt;send_hwms_to_peer()&lt;br&gt;send_stats_to_peer()&lt;br&gt;set_disconnect_pair()&lt;br&gt;set_event_sink()&lt;br&gt;set_hwms()&lt;br&gt;send_stats_to_peer()&lt;br&gt;set_disconnect_msg()&lt;br&gt;set_endpoint_pair()&lt;br&gt;set_event_sink()&lt;br&gt;set_hwms()&lt;br&gt;set_hwms_boost()&lt;br&gt;set_nodelay()&lt;br&gt;set_peer()&lt;br&gt;set_router_socket_routing_id()&lt;br&gt;set_server_socket_routing_id()&lt;br&gt;terminate()&lt;br&gt;write()" style="text;strokeColor=none;fillColor=none;align=left;verticalAlign=top;spacingLeft=4;spacingRight=4;overflow=hidden;rotatable=0;points=[[0,0.5],[1,0.5]];portConstraint=eastwest;whiteSpace=wrap;html=1;" vertex="1" parent="KRFL9_BNYJd5pwZG4S-C-50">
          <mxGeometry y="278" width="210" height="642" as="geometry" />
        </mxCell>
        <mxCell id="KRFL9_BNYJd5pwZG4S-C-54" value="PlainClient" style="swimlane;fontStyle=1;align=center;verticalAlign=top;childLayout=stackLayout;horizontal=1;startSize=26;horizontalStack=0;resizeParent=1;resizeParentMax=0;resizeLast=0;collapsible=1;marginBottom=0;whiteSpace=wrap;html=1;" vertex="1" parent="WIyWlLk6GJQsqaUBKTNV-1">
          <mxGeometry x="5000" y="43" width="280" height="220" as="geometry" />
        </mxCell>
        <mxCell id="KRFL9_BNYJd5pwZG4S-C-55" value="_state: PlainClientState&lt;br&gt;mechanism_base: ZmqMechanismBase" style="text;strokeColor=none;fillColor=none;align=left;verticalAlign=top;spacingLeft=4;spacingRight=4;overflow=hidden;rotatable=0;points=[[0,0.5],[1,0.5]];portConstraint=eastwest;whiteSpace=wrap;html=1;" vertex="1" parent="KRFL9_BNYJd5pwZG4S-C-54">
          <mxGeometry y="26" width="280" height="44" as="geometry" />
        </mxCell>
        <mxCell id="KRFL9_BNYJd5pwZG4S-C-56" value="" style="line;strokeWidth=1;fillColor=none;align=left;verticalAlign=middle;spacingTop=-1;spacingLeft=3;spacingRight=3;rotatable=0;labelPosition=right;points=[];portConstraint=eastwest;strokeColor=inherit;" vertex="1" parent="KRFL9_BNYJd5pwZG4S-C-54">
          <mxGeometry y="70" width="280" height="8" as="geometry" />
        </mxCell>
        <mxCell id="KRFL9_BNYJd5pwZG4S-C-57" value="new()&lt;br&gt;next_handshake_command()&lt;br&gt;process_error()&lt;br&gt;process_handshake_command()&lt;br&gt;process_ready()&lt;br&gt;process_welcome()&lt;br&gt;produce_hello()&lt;br&gt;produce_initiate()&lt;br&gt;status()" style="text;strokeColor=none;fillColor=none;align=left;verticalAlign=top;spacingLeft=4;spacingRight=4;overflow=hidden;rotatable=0;points=[[0,0.5],[1,0.5]];portConstraint=eastwest;whiteSpace=wrap;html=1;" vertex="1" parent="KRFL9_BNYJd5pwZG4S-C-54">
          <mxGeometry y="78" width="280" height="142" as="geometry" />
        </mxCell>
        <mxCell id="KRFL9_BNYJd5pwZG4S-C-58" value="PlainServer" style="swimlane;fontStyle=1;align=center;verticalAlign=top;childLayout=stackLayout;horizontal=1;startSize=26;horizontalStack=0;resizeParent=1;resizeParentMax=0;resizeLast=0;collapsible=1;marginBottom=0;whiteSpace=wrap;html=1;" vertex="1" parent="WIyWlLk6GJQsqaUBKTNV-1">
          <mxGeometry x="5000" y="280" width="400" height="300" as="geometry" />
        </mxCell>
        <mxCell id="KRFL9_BNYJd5pwZG4S-C-59" value="mechanism_basde: ZmqMechanismBase&lt;br&gt;password: String&lt;br&gt;peer_address: String&lt;br&gt;state: PlainServerState&lt;br&gt;username: String&lt;br&gt;ZmqZapClientCommonHandshake: ZmqZapClientCommonHandshake" style="text;strokeColor=none;fillColor=none;align=left;verticalAlign=top;spacingLeft=4;spacingRight=4;overflow=hidden;rotatable=0;points=[[0,0.5],[1,0.5]];portConstraint=eastwest;whiteSpace=wrap;html=1;" vertex="1" parent="KRFL9_BNYJd5pwZG4S-C-58">
          <mxGeometry y="26" width="400" height="124" as="geometry" />
        </mxCell>
        <mxCell id="KRFL9_BNYJd5pwZG4S-C-60" value="" style="line;strokeWidth=1;fillColor=none;align=left;verticalAlign=middle;spacingTop=-1;spacingLeft=3;spacingRight=3;rotatable=0;labelPosition=right;points=[];portConstraint=eastwest;strokeColor=inherit;" vertex="1" parent="KRFL9_BNYJd5pwZG4S-C-58">
          <mxGeometry y="150" width="400" height="8" as="geometry" />
        </mxCell>
        <mxCell id="KRFL9_BNYJd5pwZG4S-C-61" value="new()&lt;br&gt;next_handshake_command()&lt;br&gt;process_handshake_command()&lt;br&gt;process_hello()&lt;br&gt;process_initiate()&lt;br&gt;produice_error()&lt;br&gt;produce_ready()&lt;br&gt;produce_welcome()&lt;br&gt;send_zap_request()" style="text;strokeColor=none;fillColor=none;align=left;verticalAlign=top;spacingLeft=4;spacingRight=4;overflow=hidden;rotatable=0;points=[[0,0.5],[1,0.5]];portConstraint=eastwest;whiteSpace=wrap;html=1;" vertex="1" parent="KRFL9_BNYJd5pwZG4S-C-58">
          <mxGeometry y="158" width="400" height="142" as="geometry" />
        </mxCell>
        <mxCell id="KRFL9_BNYJd5pwZG4S-C-63" value="poll_t" style="swimlane;fontStyle=1;align=center;verticalAlign=top;childLayout=stackLayout;horizontal=1;startSize=26;horizontalStack=0;resizeParent=1;resizeParentMax=0;resizeLast=0;collapsible=1;marginBottom=0;whiteSpace=wrap;html=1;" vertex="1" parent="WIyWlLk6GJQsqaUBKTNV-1">
          <mxGeometry x="5750" y="39" width="220" height="300" as="geometry" />
        </mxCell>
        <mxCell id="KRFL9_BNYJd5pwZG4S-C-64" value="fd_table: Vec&amp;lt;FdEntry&amp;gt;&lt;br&gt;pollset: Vec&amp;lt;pollfd&amp;gt;&lt;br&gt;retired: bool&lt;br&gt;worker_poller_base: WorkerPollerBase" style="text;strokeColor=none;fillColor=none;align=left;verticalAlign=top;spacingLeft=4;spacingRight=4;overflow=hidden;rotatable=0;points=[[0,0.5],[1,0.5]];portConstraint=eastwest;whiteSpace=wrap;html=1;" vertex="1" parent="KRFL9_BNYJd5pwZG4S-C-63">
          <mxGeometry y="26" width="220" height="94" as="geometry" />
        </mxCell>
        <mxCell id="KRFL9_BNYJd5pwZG4S-C-65" value="" style="line;strokeWidth=1;fillColor=none;align=left;verticalAlign=middle;spacingTop=-1;spacingLeft=3;spacingRight=3;rotatable=0;labelPosition=right;points=[];portConstraint=eastwest;strokeColor=inherit;" vertex="1" parent="KRFL9_BNYJd5pwZG4S-C-63">
          <mxGeometry y="120" width="220" height="8" as="geometry" />
        </mxCell>
        <mxCell id="KRFL9_BNYJd5pwZG4S-C-66" value="add_fd()&lt;br&gt;cleanup_retired()&lt;br&gt;loop_()&lt;br&gt;max_fds()&lt;br&gt;new()&lt;br&gt;reset_pollin()&lt;br&gt;reset_pollout()&lt;br&gt;rm_fd()&lt;br&gt;set_pollin()&lt;br&gt;set_pollout()&lt;br&gt;stop()" style="text;strokeColor=none;fillColor=none;align=left;verticalAlign=top;spacingLeft=4;spacingRight=4;overflow=hidden;rotatable=0;points=[[0,0.5],[1,0.5]];portConstraint=eastwest;whiteSpace=wrap;html=1;" vertex="1" parent="KRFL9_BNYJd5pwZG4S-C-63">
          <mxGeometry y="128" width="220" height="172" as="geometry" />
        </mxCell>
        <mxCell id="KRFL9_BNYJd5pwZG4S-C-67" value="ZmqPollItem" style="swimlane;fontStyle=1;align=center;verticalAlign=top;childLayout=stackLayout;horizontal=1;startSize=26;horizontalStack=0;resizeParent=1;resizeParentMax=0;resizeLast=0;collapsible=1;marginBottom=0;whiteSpace=wrap;html=1;" vertex="1" parent="WIyWlLk6GJQsqaUBKTNV-1">
          <mxGeometry x="5750" y="360" width="160" height="128" as="geometry" />
        </mxCell>
        <mxCell id="KRFL9_BNYJd5pwZG4S-C-68" value="events: i16&lt;br&gt;fd: ZmqFileDesc&lt;br&gt;revents: i16&lt;br&gt;socket: ZmqSocket" style="text;strokeColor=none;fillColor=none;align=left;verticalAlign=top;spacingLeft=4;spacingRight=4;overflow=hidden;rotatable=0;points=[[0,0.5],[1,0.5]];portConstraint=eastwest;whiteSpace=wrap;html=1;" vertex="1" parent="KRFL9_BNYJd5pwZG4S-C-67">
          <mxGeometry y="26" width="160" height="94" as="geometry" />
        </mxCell>
        <mxCell id="KRFL9_BNYJd5pwZG4S-C-69" value="" style="line;strokeWidth=1;fillColor=none;align=left;verticalAlign=middle;spacingTop=-1;spacingLeft=3;spacingRight=3;rotatable=0;labelPosition=right;points=[];portConstraint=eastwest;strokeColor=inherit;" vertex="1" parent="KRFL9_BNYJd5pwZG4S-C-67">
          <mxGeometry y="120" width="160" height="8" as="geometry" />
        </mxCell>
        <mxCell id="KRFL9_BNYJd5pwZG4S-C-71" value="PollerBase" style="swimlane;fontStyle=1;align=center;verticalAlign=top;childLayout=stackLayout;horizontal=1;startSize=26;horizontalStack=0;resizeParent=1;resizeParentMax=0;resizeLast=0;collapsible=1;marginBottom=0;whiteSpace=wrap;html=1;" vertex="1" parent="WIyWlLk6GJQsqaUBKTNV-1">
          <mxGeometry x="5750" y="520" width="160" height="190" as="geometry" />
        </mxCell>
        <mxCell id="KRFL9_BNYJd5pwZG4S-C-72" value="_clock: clock_t&lt;br&gt;_load: AtomicU64&lt;br&gt;_timers: Hashmap&amp;lt;u64,timer_info_t&amp;gt;" style="text;strokeColor=none;fillColor=none;align=left;verticalAlign=top;spacingLeft=4;spacingRight=4;overflow=hidden;rotatable=0;points=[[0,0.5],[1,0.5]];portConstraint=eastwest;whiteSpace=wrap;html=1;" vertex="1" parent="KRFL9_BNYJd5pwZG4S-C-71">
          <mxGeometry y="26" width="160" height="74" as="geometry" />
        </mxCell>
        <mxCell id="KRFL9_BNYJd5pwZG4S-C-73" value="" style="line;strokeWidth=1;fillColor=none;align=left;verticalAlign=middle;spacingTop=-1;spacingLeft=3;spacingRight=3;rotatable=0;labelPosition=right;points=[];portConstraint=eastwest;strokeColor=inherit;" vertex="1" parent="KRFL9_BNYJd5pwZG4S-C-71">
          <mxGeometry y="100" width="160" height="8" as="geometry" />
        </mxCell>
        <mxCell id="KRFL9_BNYJd5pwZG4S-C-74" value="add_timer()&lt;br&gt;adjust_load()&lt;br&gt;cancel_timer()&lt;br&gt;execute_timers()&lt;br&gt;get_load()" style="text;strokeColor=none;fillColor=none;align=left;verticalAlign=top;spacingLeft=4;spacingRight=4;overflow=hidden;rotatable=0;points=[[0,0.5],[1,0.5]];portConstraint=eastwest;whiteSpace=wrap;html=1;" vertex="1" parent="KRFL9_BNYJd5pwZG4S-C-71">
          <mxGeometry y="108" width="160" height="82" as="geometry" />
        </mxCell>
        <mxCell id="KRFL9_BNYJd5pwZG4S-C-75" value="ZmqPollerEvent" style="swimlane;fontStyle=1;align=center;verticalAlign=top;childLayout=stackLayout;horizontal=1;startSize=26;horizontalStack=0;resizeParent=1;resizeParentMax=0;resizeLast=0;collapsible=1;marginBottom=0;whiteSpace=wrap;html=1;" vertex="1" parent="WIyWlLk6GJQsqaUBKTNV-1">
          <mxGeometry x="5750" y="762" width="240" height="118" as="geometry" />
        </mxCell>
        <mxCell id="KRFL9_BNYJd5pwZG4S-C-76" value="events: i16&lt;br&gt;fd: i32&lt;br&gt;socket: Option&amp;lt;Vec&amp;lt;u8&amp;gt;&amp;gt;&lt;br&gt;user_data: Option&amp;lt;Vec&amp;lt;u8&amp;gt;&amp;gt;" style="text;strokeColor=none;fillColor=none;align=left;verticalAlign=top;spacingLeft=4;spacingRight=4;overflow=hidden;rotatable=0;points=[[0,0.5],[1,0.5]];portConstraint=eastwest;whiteSpace=wrap;html=1;" vertex="1" parent="KRFL9_BNYJd5pwZG4S-C-75">
          <mxGeometry y="26" width="240" height="84" as="geometry" />
        </mxCell>
        <mxCell id="KRFL9_BNYJd5pwZG4S-C-77" value="" style="line;strokeWidth=1;fillColor=none;align=left;verticalAlign=middle;spacingTop=-1;spacingLeft=3;spacingRight=3;rotatable=0;labelPosition=right;points=[];portConstraint=eastwest;strokeColor=inherit;" vertex="1" parent="KRFL9_BNYJd5pwZG4S-C-75">
          <mxGeometry y="110" width="240" height="8" as="geometry" />
        </mxCell>
        <mxCell id="KRFL9_BNYJd5pwZG4S-C-79" value="polling_util" style="swimlane;fontStyle=0;childLayout=stackLayout;horizontal=1;startSize=26;fillColor=none;horizontalStack=0;resizeParent=1;resizeParentMax=0;resizeLast=0;collapsible=1;marginBottom=0;whiteSpace=wrap;html=1;" vertex="1" parent="WIyWlLk6GJQsqaUBKTNV-1">
          <mxGeometry x="5750" y="920" width="140" height="110" as="geometry" />
        </mxCell>
        <mxCell id="KRFL9_BNYJd5pwZG4S-C-80" value="compute_timeout()&lt;br&gt;valid_pollset_bytes()" style="text;strokeColor=none;fillColor=none;align=left;verticalAlign=top;spacingLeft=4;spacingRight=4;overflow=hidden;rotatable=0;points=[[0,0.5],[1,0.5]];portConstraint=eastwest;whiteSpace=wrap;html=1;" vertex="1" parent="KRFL9_BNYJd5pwZG4S-C-79">
          <mxGeometry y="26" width="140" height="84" as="geometry" />
        </mxCell>
        <mxCell id="KRFL9_BNYJd5pwZG4S-C-83" value="PollSet" style="swimlane;fontStyle=1;align=center;verticalAlign=top;childLayout=stackLayout;horizontal=1;startSize=26;horizontalStack=0;resizeParent=1;resizeParentMax=0;resizeLast=0;collapsible=1;marginBottom=0;whiteSpace=wrap;html=1;" vertex="1" parent="WIyWlLk6GJQsqaUBKTNV-1">
          <mxGeometry x="5750" y="1080" width="160" height="310" as="geometry" />
        </mxCell>
        <mxCell id="KRFL9_BNYJd5pwZG4S-C-84" value="ctx&lt;br&gt;fd_table: Vec&amp;lt;ZmqPollEntry&amp;gt;&lt;br&gt;poller_base: PollerBase&lt;br&gt;pollset_fd: ZmqFileDesc&lt;br&gt;retired: Vec&amp;lt;ZmqPollEntry&amp;gt;&lt;br&gt;stopping: bool&lt;br&gt;worker: ZmqIoThread&lt;br&gt;" style="text;strokeColor=none;fillColor=none;align=left;verticalAlign=top;spacingLeft=4;spacingRight=4;overflow=hidden;rotatable=0;points=[[0,0.5],[1,0.5]];portConstraint=eastwest;whiteSpace=wrap;html=1;" vertex="1" parent="KRFL9_BNYJd5pwZG4S-C-83">
          <mxGeometry y="26" width="160" height="134" as="geometry" />
        </mxCell>
        <mxCell id="KRFL9_BNYJd5pwZG4S-C-85" value="" style="line;strokeWidth=1;fillColor=none;align=left;verticalAlign=middle;spacingTop=-1;spacingLeft=3;spacingRight=3;rotatable=0;labelPosition=right;points=[];portConstraint=eastwest;strokeColor=inherit;" vertex="1" parent="KRFL9_BNYJd5pwZG4S-C-83">
          <mxGeometry y="160" width="160" height="8" as="geometry" />
        </mxCell>
        <mxCell id="KRFL9_BNYJd5pwZG4S-C-86" value="add_fd()&lt;br&gt;loop_()&lt;br&gt;max_fds()&lt;br&gt;new()&lt;br&gt;reset_pollin()&lt;br&gt;reset_pollout()&lt;br&gt;rm_fd()&lt;br&gt;set_pollin()&lt;br&gt;set_pollout()&lt;br&gt;" style="text;strokeColor=none;fillColor=none;align=left;verticalAlign=top;spacingLeft=4;spacingRight=4;overflow=hidden;rotatable=0;points=[[0,0.5],[1,0.5]];portConstraint=eastwest;whiteSpace=wrap;html=1;" vertex="1" parent="KRFL9_BNYJd5pwZG4S-C-83">
          <mxGeometry y="168" width="160" height="142" as="geometry" />
        </mxCell>
        <mxCell id="KRFL9_BNYJd5pwZG4S-C-87" value="Proxy" style="swimlane;fontStyle=1;align=center;verticalAlign=top;childLayout=stackLayout;horizontal=1;startSize=26;horizontalStack=0;resizeParent=1;resizeParentMax=0;resizeLast=0;collapsible=1;marginBottom=0;whiteSpace=wrap;html=1;" vertex="1" parent="WIyWlLk6GJQsqaUBKTNV-1">
          <mxGeometry x="5480" y="40" width="160" height="118" as="geometry" />
        </mxCell>
        <mxCell id="KRFL9_BNYJd5pwZG4S-C-88" value="capture()&lt;br&gt;forward()&lt;br&gt;loop_and_send_multipart_stat()&lt;br&gt;proxy()&lt;br&gt;reply_stats()" style="text;strokeColor=none;fillColor=none;align=left;verticalAlign=top;spacingLeft=4;spacingRight=4;overflow=hidden;rotatable=0;points=[[0,0.5],[1,0.5]];portConstraint=eastwest;whiteSpace=wrap;html=1;" vertex="1" parent="KRFL9_BNYJd5pwZG4S-C-87">
          <mxGeometry y="26" width="160" height="84" as="geometry" />
        </mxCell>
        <mxCell id="KRFL9_BNYJd5pwZG4S-C-89" value="" style="line;strokeWidth=1;fillColor=none;align=left;verticalAlign=middle;spacingTop=-1;spacingLeft=3;spacingRight=3;rotatable=0;labelPosition=right;points=[];portConstraint=eastwest;strokeColor=inherit;" vertex="1" parent="KRFL9_BNYJd5pwZG4S-C-87">
          <mxGeometry y="110" width="160" height="8" as="geometry" />
        </mxCell>
        <mxCell id="KRFL9_BNYJd5pwZG4S-C-91" value="ZmqPub" style="swimlane;fontStyle=1;align=center;verticalAlign=top;childLayout=stackLayout;horizontal=1;startSize=26;horizontalStack=0;resizeParent=1;resizeParentMax=0;resizeLast=0;collapsible=1;marginBottom=0;whiteSpace=wrap;html=1;" vertex="1" parent="WIyWlLk6GJQsqaUBKTNV-1">
          <mxGeometry x="320" y="2160" width="160" height="200" as="geometry" />
        </mxCell>
        <mxCell id="KRFL9_BNYJd5pwZG4S-C-92" value="xpub: XPub" style="text;strokeColor=none;fillColor=none;align=left;verticalAlign=top;spacingLeft=4;spacingRight=4;overflow=hidden;rotatable=0;points=[[0,0.5],[1,0.5]];portConstraint=eastwest;whiteSpace=wrap;html=1;" vertex="1" parent="KRFL9_BNYJd5pwZG4S-C-91">
          <mxGeometry y="26" width="160" height="64" as="geometry" />
        </mxCell>
        <mxCell id="KRFL9_BNYJd5pwZG4S-C-93" value="" style="line;strokeWidth=1;fillColor=none;align=left;verticalAlign=middle;spacingTop=-1;spacingLeft=3;spacingRight=3;rotatable=0;labelPosition=right;points=[];portConstraint=eastwest;strokeColor=inherit;" vertex="1" parent="KRFL9_BNYJd5pwZG4S-C-91">
          <mxGeometry y="90" width="160" height="8" as="geometry" />
        </mxCell>
        <mxCell id="KRFL9_BNYJd5pwZG4S-C-94" value="new()&lt;br&gt;xattach_pipe()&lt;br&gt;xhas_in()&lt;br&gt;xrecv()" style="text;strokeColor=none;fillColor=none;align=left;verticalAlign=top;spacingLeft=4;spacingRight=4;overflow=hidden;rotatable=0;points=[[0,0.5],[1,0.5]];portConstraint=eastwest;whiteSpace=wrap;html=1;" vertex="1" parent="KRFL9_BNYJd5pwZG4S-C-91">
          <mxGeometry y="98" width="160" height="102" as="geometry" />
        </mxCell>
        <mxCell id="KRFL9_BNYJd5pwZG4S-C-95" value="ZmqPull" style="swimlane;fontStyle=1;align=center;verticalAlign=top;childLayout=stackLayout;horizontal=1;startSize=26;horizontalStack=0;resizeParent=1;resizeParentMax=0;resizeLast=0;collapsible=1;marginBottom=0;whiteSpace=wrap;html=1;" vertex="1" parent="WIyWlLk6GJQsqaUBKTNV-1">
          <mxGeometry x="320" y="2400" width="200" height="200" as="geometry" />
        </mxCell>
        <mxCell id="KRFL9_BNYJd5pwZG4S-C-96" value="fair_queue: VecDeque&amp;lt;ZmqPipe&amp;gt;&lt;br&gt;socket_base: ZmqSocketBase" style="text;strokeColor=none;fillColor=none;align=left;verticalAlign=top;spacingLeft=4;spacingRight=4;overflow=hidden;rotatable=0;points=[[0,0.5],[1,0.5]];portConstraint=eastwest;whiteSpace=wrap;html=1;" vertex="1" parent="KRFL9_BNYJd5pwZG4S-C-95">
          <mxGeometry y="26" width="200" height="64" as="geometry" />
        </mxCell>
        <mxCell id="KRFL9_BNYJd5pwZG4S-C-97" value="" style="line;strokeWidth=1;fillColor=none;align=left;verticalAlign=middle;spacingTop=-1;spacingLeft=3;spacingRight=3;rotatable=0;labelPosition=right;points=[];portConstraint=eastwest;strokeColor=inherit;" vertex="1" parent="KRFL9_BNYJd5pwZG4S-C-95">
          <mxGeometry y="90" width="200" height="8" as="geometry" />
        </mxCell>
        <mxCell id="KRFL9_BNYJd5pwZG4S-C-98" value="new()&lt;br&gt;xattach_pipe()&lt;br&gt;xhas_in()&lt;br&gt;xpipe_terminated()&lt;br&gt;xread_activated()&lt;br&gt;xrecv()&lt;br&gt;" style="text;strokeColor=none;fillColor=none;align=left;verticalAlign=top;spacingLeft=4;spacingRight=4;overflow=hidden;rotatable=0;points=[[0,0.5],[1,0.5]];portConstraint=eastwest;whiteSpace=wrap;html=1;" vertex="1" parent="KRFL9_BNYJd5pwZG4S-C-95">
          <mxGeometry y="98" width="200" height="102" as="geometry" />
        </mxCell>
        <mxCell id="KRFL9_BNYJd5pwZG4S-C-99" value="ZmqPush" style="swimlane;fontStyle=1;align=center;verticalAlign=top;childLayout=stackLayout;horizontal=1;startSize=26;horizontalStack=0;resizeParent=1;resizeParentMax=0;resizeLast=0;collapsible=1;marginBottom=0;whiteSpace=wrap;html=1;" vertex="1" parent="WIyWlLk6GJQsqaUBKTNV-1">
          <mxGeometry x="320" y="2680" width="170" height="200" as="geometry" />
        </mxCell>
        <mxCell id="KRFL9_BNYJd5pwZG4S-C-100" value="load_balance: LoadBalancer&lt;br&gt;socket_base: ZmqSocket" style="text;strokeColor=none;fillColor=none;align=left;verticalAlign=top;spacingLeft=4;spacingRight=4;overflow=hidden;rotatable=0;points=[[0,0.5],[1,0.5]];portConstraint=eastwest;whiteSpace=wrap;html=1;" vertex="1" parent="KRFL9_BNYJd5pwZG4S-C-99">
          <mxGeometry y="26" width="170" height="64" as="geometry" />
        </mxCell>
        <mxCell id="KRFL9_BNYJd5pwZG4S-C-101" value="" style="line;strokeWidth=1;fillColor=none;align=left;verticalAlign=middle;spacingTop=-1;spacingLeft=3;spacingRight=3;rotatable=0;labelPosition=right;points=[];portConstraint=eastwest;strokeColor=inherit;" vertex="1" parent="KRFL9_BNYJd5pwZG4S-C-99">
          <mxGeometry y="90" width="170" height="8" as="geometry" />
        </mxCell>
        <mxCell id="KRFL9_BNYJd5pwZG4S-C-102" value="new()&lt;br&gt;xattach_pipe()&lt;br&gt;xhas_out()&lt;br&gt;xpipe_terminated()&lt;br&gt;xsend()&lt;br&gt;xwrite_activated()" style="text;strokeColor=none;fillColor=none;align=left;verticalAlign=top;spacingLeft=4;spacingRight=4;overflow=hidden;rotatable=0;points=[[0,0.5],[1,0.5]];portConstraint=eastwest;whiteSpace=wrap;html=1;" vertex="1" parent="KRFL9_BNYJd5pwZG4S-C-99">
          <mxGeometry y="98" width="170" height="102" as="geometry" />
        </mxCell>
        <mxCell id="KRFL9_BNYJd5pwZG4S-C-103" value="ZmqRadio" style="swimlane;fontStyle=1;align=center;verticalAlign=top;childLayout=stackLayout;horizontal=1;startSize=26;horizontalStack=0;resizeParent=1;resizeParentMax=0;resizeLast=0;collapsible=1;marginBottom=0;whiteSpace=wrap;html=1;" vertex="1" parent="WIyWlLk6GJQsqaUBKTNV-1">
          <mxGeometry x="320" y="2960" width="250" height="280" as="geometry" />
        </mxCell>
        <mxCell id="KRFL9_BNYJd5pwZG4S-C-104" value="_dist: ZmqDist&lt;br&gt;_lossy: bool&lt;br&gt;_subscriptions: HashMap&amp;lt;String, ZmqPipe&amp;gt;&lt;br&gt;_udp_pipes: Vec&amp;lt;ZmqPipe&amp;gt;" style="text;strokeColor=none;fillColor=none;align=left;verticalAlign=top;spacingLeft=4;spacingRight=4;overflow=hidden;rotatable=0;points=[[0,0.5],[1,0.5]];portConstraint=eastwest;whiteSpace=wrap;html=1;" vertex="1" parent="KRFL9_BNYJd5pwZG4S-C-103">
          <mxGeometry y="26" width="250" height="84" as="geometry" />
        </mxCell>
        <mxCell id="KRFL9_BNYJd5pwZG4S-C-105" value="" style="line;strokeWidth=1;fillColor=none;align=left;verticalAlign=middle;spacingTop=-1;spacingLeft=3;spacingRight=3;rotatable=0;labelPosition=right;points=[];portConstraint=eastwest;strokeColor=inherit;" vertex="1" parent="KRFL9_BNYJd5pwZG4S-C-103">
          <mxGeometry y="110" width="250" height="8" as="geometry" />
        </mxCell>
        <mxCell id="KRFL9_BNYJd5pwZG4S-C-106" value="new()&lt;br&gt;xattach_pipe()&lt;br&gt;xhas_in()&lt;br&gt;xhas_out&lt;br&gt;xpipe_terminated()&lt;br&gt;xread_activated()&lt;br&gt;xrecv()&lt;br&gt;xsend()&lt;br&gt;xsetsockopt()&lt;br&gt;xwrite_activated()" style="text;strokeColor=none;fillColor=none;align=left;verticalAlign=top;spacingLeft=4;spacingRight=4;overflow=hidden;rotatable=0;points=[[0,0.5],[1,0.5]];portConstraint=eastwest;whiteSpace=wrap;html=1;" vertex="1" parent="KRFL9_BNYJd5pwZG4S-C-103">
          <mxGeometry y="118" width="250" height="162" as="geometry" />
        </mxCell>
        <mxCell id="KRFL9_BNYJd5pwZG4S-C-107" value="RadioSession" style="swimlane;fontStyle=1;align=center;verticalAlign=top;childLayout=stackLayout;horizontal=1;startSize=26;horizontalStack=0;resizeParent=1;resizeParentMax=0;resizeLast=0;collapsible=1;marginBottom=0;whiteSpace=wrap;html=1;" vertex="1" parent="WIyWlLk6GJQsqaUBKTNV-1">
          <mxGeometry x="640" y="2960" width="190" height="180" as="geometry" />
        </mxCell>
        <mxCell id="KRFL9_BNYJd5pwZG4S-C-108" value="_pending_msg: ZmqMessage&lt;br&gt;session_base: ZmqSessionBase" style="text;strokeColor=none;fillColor=none;align=left;verticalAlign=top;spacingLeft=4;spacingRight=4;overflow=hidden;rotatable=0;points=[[0,0.5],[1,0.5]];portConstraint=eastwest;whiteSpace=wrap;html=1;" vertex="1" parent="KRFL9_BNYJd5pwZG4S-C-107">
          <mxGeometry y="26" width="190" height="74" as="geometry" />
        </mxCell>
        <mxCell id="KRFL9_BNYJd5pwZG4S-C-109" value="" style="line;strokeWidth=1;fillColor=none;align=left;verticalAlign=middle;spacingTop=-1;spacingLeft=3;spacingRight=3;rotatable=0;labelPosition=right;points=[];portConstraint=eastwest;strokeColor=inherit;" vertex="1" parent="KRFL9_BNYJd5pwZG4S-C-107">
          <mxGeometry y="100" width="190" height="8" as="geometry" />
        </mxCell>
        <mxCell id="KRFL9_BNYJd5pwZG4S-C-110" value="new()&lt;br&gt;pull_msg()&lt;br&gt;push_msg()&lt;br&gt;reset()" style="text;strokeColor=none;fillColor=none;align=left;verticalAlign=top;spacingLeft=4;spacingRight=4;overflow=hidden;rotatable=0;points=[[0,0.5],[1,0.5]];portConstraint=eastwest;whiteSpace=wrap;html=1;" vertex="1" parent="KRFL9_BNYJd5pwZG4S-C-107">
          <mxGeometry y="108" width="190" height="72" as="geometry" />
        </mxCell>
        <mxCell id="KRFL9_BNYJd5pwZG4S-C-111" value="RawDecoder" style="swimlane;fontStyle=1;align=center;verticalAlign=top;childLayout=stackLayout;horizontal=1;startSize=26;horizontalStack=0;resizeParent=1;resizeParentMax=0;resizeLast=0;collapsible=1;marginBottom=0;whiteSpace=wrap;html=1;" vertex="1" parent="WIyWlLk6GJQsqaUBKTNV-1">
          <mxGeometry x="1360" y="560" width="240" height="170" as="geometry" />
        </mxCell>
        <mxCell id="KRFL9_BNYJd5pwZG4S-C-112" value="decoder_interface: ZmqDecoderInterface&lt;br&gt;in_progress: ZmqMessage" style="text;strokeColor=none;fillColor=none;align=left;verticalAlign=top;spacingLeft=4;spacingRight=4;overflow=hidden;rotatable=0;points=[[0,0.5],[1,0.5]];portConstraint=eastwest;whiteSpace=wrap;html=1;" vertex="1" parent="KRFL9_BNYJd5pwZG4S-C-111">
          <mxGeometry y="26" width="240" height="64" as="geometry" />
        </mxCell>
        <mxCell id="KRFL9_BNYJd5pwZG4S-C-113" value="" style="line;strokeWidth=1;fillColor=none;align=left;verticalAlign=middle;spacingTop=-1;spacingLeft=3;spacingRight=3;rotatable=0;labelPosition=right;points=[];portConstraint=eastwest;strokeColor=inherit;" vertex="1" parent="KRFL9_BNYJd5pwZG4S-C-111">
          <mxGeometry y="90" width="240" height="8" as="geometry" />
        </mxCell>
        <mxCell id="KRFL9_BNYJd5pwZG4S-C-114" value="decode()&lt;br&gt;get_buffer()&lt;br&gt;new()" style="text;strokeColor=none;fillColor=none;align=left;verticalAlign=top;spacingLeft=4;spacingRight=4;overflow=hidden;rotatable=0;points=[[0,0.5],[1,0.5]];portConstraint=eastwest;whiteSpace=wrap;html=1;" vertex="1" parent="KRFL9_BNYJd5pwZG4S-C-111">
          <mxGeometry y="98" width="240" height="72" as="geometry" />
        </mxCell>
        <mxCell id="KRFL9_BNYJd5pwZG4S-C-115" value="RawEncoder" style="swimlane;fontStyle=1;align=center;verticalAlign=top;childLayout=stackLayout;horizontal=1;startSize=26;horizontalStack=0;resizeParent=1;resizeParentMax=0;resizeLast=0;collapsible=1;marginBottom=0;whiteSpace=wrap;html=1;" vertex="1" parent="WIyWlLk6GJQsqaUBKTNV-1">
          <mxGeometry x="1360" y="800" width="200" height="100" as="geometry" />
        </mxCell>
        <mxCell id="KRFL9_BNYJd5pwZG4S-C-116" value="encoder_base: EncoderBase" style="text;strokeColor=none;fillColor=none;align=left;verticalAlign=top;spacingLeft=4;spacingRight=4;overflow=hidden;rotatable=0;points=[[0,0.5],[1,0.5]];portConstraint=eastwest;whiteSpace=wrap;html=1;" vertex="1" parent="KRFL9_BNYJd5pwZG4S-C-115">
          <mxGeometry y="26" width="200" height="26" as="geometry" />
        </mxCell>
        <mxCell id="KRFL9_BNYJd5pwZG4S-C-117" value="" style="line;strokeWidth=1;fillColor=none;align=left;verticalAlign=middle;spacingTop=-1;spacingLeft=3;spacingRight=3;rotatable=0;labelPosition=right;points=[];portConstraint=eastwest;strokeColor=inherit;" vertex="1" parent="KRFL9_BNYJd5pwZG4S-C-115">
          <mxGeometry y="52" width="200" height="8" as="geometry" />
        </mxCell>
        <mxCell id="KRFL9_BNYJd5pwZG4S-C-118" value="new()&lt;br&gt;raw_message_ready()" style="text;strokeColor=none;fillColor=none;align=left;verticalAlign=top;spacingLeft=4;spacingRight=4;overflow=hidden;rotatable=0;points=[[0,0.5],[1,0.5]];portConstraint=eastwest;whiteSpace=wrap;html=1;" vertex="1" parent="KRFL9_BNYJd5pwZG4S-C-115">
          <mxGeometry y="60" width="200" height="40" as="geometry" />
        </mxCell>
        <mxCell id="KRFL9_BNYJd5pwZG4S-C-119" value="RawEngine" style="swimlane;fontStyle=1;align=center;verticalAlign=top;childLayout=stackLayout;horizontal=1;startSize=26;horizontalStack=0;resizeParent=1;resizeParentMax=0;resizeLast=0;collapsible=1;marginBottom=0;whiteSpace=wrap;html=1;" vertex="1" parent="WIyWlLk6GJQsqaUBKTNV-1">
          <mxGeometry x="1680" y="1440" width="270" height="150" as="geometry" />
        </mxCell>
        <mxCell id="KRFL9_BNYJd5pwZG4S-C-120" value="stream_engine_base: ZmqStreamEngineBase" style="text;strokeColor=none;fillColor=none;align=left;verticalAlign=top;spacingLeft=4;spacingRight=4;overflow=hidden;rotatable=0;points=[[0,0.5],[1,0.5]];portConstraint=eastwest;whiteSpace=wrap;html=1;" vertex="1" parent="KRFL9_BNYJd5pwZG4S-C-119">
          <mxGeometry y="26" width="270" height="26" as="geometry" />
        </mxCell>
        <mxCell id="KRFL9_BNYJd5pwZG4S-C-121" value="" style="line;strokeWidth=1;fillColor=none;align=left;verticalAlign=middle;spacingTop=-1;spacingLeft=3;spacingRight=3;rotatable=0;labelPosition=right;points=[];portConstraint=eastwest;strokeColor=inherit;" vertex="1" parent="KRFL9_BNYJd5pwZG4S-C-119">
          <mxGeometry y="52" width="270" height="8" as="geometry" />
        </mxCell>
        <mxCell id="KRFL9_BNYJd5pwZG4S-C-122" value="error()&lt;br&gt;handshake()&lt;br&gt;new()&lt;br&gt;plug_internal()&lt;br&gt;push_raw_msg_to_session()" style="text;strokeColor=none;fillColor=none;align=left;verticalAlign=top;spacingLeft=4;spacingRight=4;overflow=hidden;rotatable=0;points=[[0,0.5],[1,0.5]];portConstraint=eastwest;whiteSpace=wrap;html=1;" vertex="1" parent="KRFL9_BNYJd5pwZG4S-C-119">
          <mxGeometry y="60" width="270" height="90" as="geometry" />
        </mxCell>
        <mxCell id="KRFL9_BNYJd5pwZG4S-C-123" value="ZmqReaper" style="swimlane;fontStyle=1;align=center;verticalAlign=top;childLayout=stackLayout;horizontal=1;startSize=26;horizontalStack=0;resizeParent=1;resizeParentMax=0;resizeLast=0;collapsible=1;marginBottom=0;whiteSpace=wrap;html=1;" vertex="1" parent="WIyWlLk6GJQsqaUBKTNV-1">
          <mxGeometry x="2080" y="2960" width="300" height="240" as="geometry" />
        </mxCell>
        <mxCell id="KRFL9_BNYJd5pwZG4S-C-124" value="_sockets&lt;br&gt;mailbox: ZmqMailbox&lt;br&gt;mailbox_handle: ZmqHandle&lt;br&gt;poller: ZmqPoller&lt;br&gt;terminating: bool" style="text;strokeColor=none;fillColor=none;align=left;verticalAlign=top;spacingLeft=4;spacingRight=4;overflow=hidden;rotatable=0;points=[[0,0.5],[1,0.5]];portConstraint=eastwest;whiteSpace=wrap;html=1;" vertex="1" parent="KRFL9_BNYJd5pwZG4S-C-123">
          <mxGeometry y="26" width="300" height="84" as="geometry" />
        </mxCell>
        <mxCell id="KRFL9_BNYJd5pwZG4S-C-125" value="" style="line;strokeWidth=1;fillColor=none;align=left;verticalAlign=middle;spacingTop=-1;spacingLeft=3;spacingRight=3;rotatable=0;labelPosition=right;points=[];portConstraint=eastwest;strokeColor=inherit;" vertex="1" parent="KRFL9_BNYJd5pwZG4S-C-123">
          <mxGeometry y="110" width="300" height="8" as="geometry" />
        </mxCell>
        <mxCell id="KRFL9_BNYJd5pwZG4S-C-126" value="in_event()&lt;br&gt;new()&lt;br&gt;process_reap()&lt;br&gt;process_reaped()&lt;br&gt;process_stop()&lt;br&gt;start()&lt;br&gt;stop()" style="text;strokeColor=none;fillColor=none;align=left;verticalAlign=top;spacingLeft=4;spacingRight=4;overflow=hidden;rotatable=0;points=[[0,0.5],[1,0.5]];portConstraint=eastwest;whiteSpace=wrap;html=1;" vertex="1" parent="KRFL9_BNYJd5pwZG4S-C-123">
          <mxGeometry y="118" width="300" height="122" as="geometry" />
        </mxCell>
        <mxCell id="KRFL9_BNYJd5pwZG4S-C-128" value="ZmqReceiver" style="swimlane;fontStyle=1;align=center;verticalAlign=top;childLayout=stackLayout;horizontal=1;startSize=26;horizontalStack=0;resizeParent=1;resizeParentMax=0;resizeLast=0;collapsible=1;marginBottom=0;whiteSpace=wrap;html=1;" vertex="1" parent="WIyWlLk6GJQsqaUBKTNV-1">
          <mxGeometry x="6080" y="40" width="160" height="86" as="geometry" />
        </mxCell>
        <mxCell id="KRFL9_BNYJd5pwZG4S-C-129" value="+ field: type" style="text;strokeColor=none;fillColor=none;align=left;verticalAlign=top;spacingLeft=4;spacingRight=4;overflow=hidden;rotatable=0;points=[[0,0.5],[1,0.5]];portConstraint=eastwest;whiteSpace=wrap;html=1;" vertex="1" parent="KRFL9_BNYJd5pwZG4S-C-128">
          <mxGeometry y="26" width="160" height="26" as="geometry" />
        </mxCell>
        <mxCell id="KRFL9_BNYJd5pwZG4S-C-130" value="" style="line;strokeWidth=1;fillColor=none;align=left;verticalAlign=middle;spacingTop=-1;spacingLeft=3;spacingRight=3;rotatable=0;labelPosition=right;points=[];portConstraint=eastwest;strokeColor=inherit;" vertex="1" parent="KRFL9_BNYJd5pwZG4S-C-128">
          <mxGeometry y="52" width="160" height="8" as="geometry" />
        </mxCell>
        <mxCell id="KRFL9_BNYJd5pwZG4S-C-131" value="+ method(type): type" style="text;strokeColor=none;fillColor=none;align=left;verticalAlign=top;spacingLeft=4;spacingRight=4;overflow=hidden;rotatable=0;points=[[0,0.5],[1,0.5]];portConstraint=eastwest;whiteSpace=wrap;html=1;" vertex="1" parent="KRFL9_BNYJd5pwZG4S-C-128">
          <mxGeometry y="60" width="160" height="26" as="geometry" />
        </mxCell>
        <mxCell id="KRFL9_BNYJd5pwZG4S-C-132" value="ZmqRep" style="swimlane;fontStyle=1;align=center;verticalAlign=top;childLayout=stackLayout;horizontal=1;startSize=26;horizontalStack=0;resizeParent=1;resizeParentMax=0;resizeLast=0;collapsible=1;marginBottom=0;whiteSpace=wrap;html=1;" vertex="1" parent="WIyWlLk6GJQsqaUBKTNV-1">
          <mxGeometry x="320" y="3800" width="160" height="220" as="geometry" />
        </mxCell>
        <mxCell id="KRFL9_BNYJd5pwZG4S-C-133" value="_request_begins: bool&lt;br&gt;_sending_reply: bool&lt;br&gt;router: ZmqRouter" style="text;strokeColor=none;fillColor=none;align=left;verticalAlign=top;spacingLeft=4;spacingRight=4;overflow=hidden;rotatable=0;points=[[0,0.5],[1,0.5]];portConstraint=eastwest;whiteSpace=wrap;html=1;" vertex="1" parent="KRFL9_BNYJd5pwZG4S-C-132">
          <mxGeometry y="26" width="160" height="84" as="geometry" />
        </mxCell>
        <mxCell id="KRFL9_BNYJd5pwZG4S-C-134" value="" style="line;strokeWidth=1;fillColor=none;align=left;verticalAlign=middle;spacingTop=-1;spacingLeft=3;spacingRight=3;rotatable=0;labelPosition=right;points=[];portConstraint=eastwest;strokeColor=inherit;" vertex="1" parent="KRFL9_BNYJd5pwZG4S-C-132">
          <mxGeometry y="110" width="160" height="8" as="geometry" />
        </mxCell>
        <mxCell id="KRFL9_BNYJd5pwZG4S-C-135" value="new()&lt;br&gt;xhas_in()&lt;br&gt;xhas_out()&lt;br&gt;xrecv()&lt;br&gt;xsend()" style="text;strokeColor=none;fillColor=none;align=left;verticalAlign=top;spacingLeft=4;spacingRight=4;overflow=hidden;rotatable=0;points=[[0,0.5],[1,0.5]];portConstraint=eastwest;whiteSpace=wrap;html=1;" vertex="1" parent="KRFL9_BNYJd5pwZG4S-C-132">
          <mxGeometry y="118" width="160" height="102" as="geometry" />
        </mxCell>
        <mxCell id="KRFL9_BNYJd5pwZG4S-C-136" value="ZmqReq" style="swimlane;fontStyle=1;align=center;verticalAlign=top;childLayout=stackLayout;horizontal=1;startSize=26;horizontalStack=0;resizeParent=1;resizeParentMax=0;resizeLast=0;collapsible=1;marginBottom=0;whiteSpace=wrap;html=1;" vertex="1" parent="WIyWlLk6GJQsqaUBKTNV-1">
          <mxGeometry x="320" y="4080" width="210" height="300" as="geometry" />
        </mxCell>
        <mxCell id="KRFL9_BNYJd5pwZG4S-C-137" value="_message_begins: bool&lt;br&gt;_receiving_reply: bool&lt;br&gt;_reply_pipe: Option&amp;lt;ZmqPipe&amp;gt;&lt;br&gt;_request_id: u32&lt;br&gt;_request_id_frames_enabled: bool&lt;br&gt;_strict: bool&lt;br&gt;dealer_ZmqDealer" style="text;strokeColor=none;fillColor=none;align=left;verticalAlign=top;spacingLeft=4;spacingRight=4;overflow=hidden;rotatable=0;points=[[0,0.5],[1,0.5]];portConstraint=eastwest;whiteSpace=wrap;html=1;" vertex="1" parent="KRFL9_BNYJd5pwZG4S-C-136">
          <mxGeometry y="26" width="210" height="134" as="geometry" />
        </mxCell>
        <mxCell id="KRFL9_BNYJd5pwZG4S-C-138" value="" style="line;strokeWidth=1;fillColor=none;align=left;verticalAlign=middle;spacingTop=-1;spacingLeft=3;spacingRight=3;rotatable=0;labelPosition=right;points=[];portConstraint=eastwest;strokeColor=inherit;" vertex="1" parent="KRFL9_BNYJd5pwZG4S-C-136">
          <mxGeometry y="160" width="210" height="8" as="geometry" />
        </mxCell>
        <mxCell id="KRFL9_BNYJd5pwZG4S-C-139" value="new()&lt;br&gt;recv_reply_pipe()&lt;br&gt;xhas_in()&lt;br&gt;xhas_out()&lt;br&gt;xpipe_terminated()&lt;br&gt;xrecv()&lt;br&gt;xsend()&lt;br&gt;xsetsockopt()&lt;br&gt;" style="text;strokeColor=none;fillColor=none;align=left;verticalAlign=top;spacingLeft=4;spacingRight=4;overflow=hidden;rotatable=0;points=[[0,0.5],[1,0.5]];portConstraint=eastwest;whiteSpace=wrap;html=1;" vertex="1" parent="KRFL9_BNYJd5pwZG4S-C-136">
          <mxGeometry y="168" width="210" height="132" as="geometry" />
        </mxCell>
        <mxCell id="KRFL9_BNYJd5pwZG4S-C-140" value="ZmqRouter" style="swimlane;fontStyle=1;align=center;verticalAlign=top;childLayout=stackLayout;horizontal=1;startSize=26;horizontalStack=0;resizeParent=1;resizeParentMax=0;resizeLast=0;collapsible=1;marginBottom=0;whiteSpace=wrap;html=1;" vertex="1" parent="WIyWlLk6GJQsqaUBKTNV-1">
          <mxGeometry x="320" y="4460" width="270" height="610" as="geometry" />
        </mxCell>
        <mxCell id="KRFL9_BNYJd5pwZG4S-C-141" value="_anonymous_pipes: HashSet&amp;lt;ZmqPipe&amp;gt;&lt;br&gt;_current_in: Option&amp;lt;ZmqPipe&amp;gt;&lt;br&gt;_current_out: Option&amp;lt;ZmqPipe&amp;gt;&lt;br&gt;_handover: bool&lt;br&gt;_mandatory: bool&lt;br&gt;_more_in: bool&lt;br&gt;_more_out: bool&lt;br&gt;_next_integral_routing_id: u32&lt;br&gt;_prefetched: bool&lt;br&gt;_prefetched_id: ZmqMessage&lt;br&gt;_prefetched_msg: ZmqMessage&lt;br&gt;_raw_socket: bool&lt;br&gt;_routing_id_sent: bool&lt;br&gt;_terminate_current_in: bool&lt;br&gt;fair_queue: VecDeque&amp;lt;ZmqMessage&amp;gt;&lt;br&gt;probe_router: bool&lt;br&gt;routing_socket_base: routing_socket_base_t" style="text;strokeColor=none;fillColor=none;align=left;verticalAlign=top;spacingLeft=4;spacingRight=4;overflow=hidden;rotatable=0;points=[[0,0.5],[1,0.5]];portConstraint=eastwest;whiteSpace=wrap;html=1;" vertex="1" parent="KRFL9_BNYJd5pwZG4S-C-140">
          <mxGeometry y="26" width="270" height="374" as="geometry" />
        </mxCell>
        <mxCell id="KRFL9_BNYJd5pwZG4S-C-142" value="" style="line;strokeWidth=1;fillColor=none;align=left;verticalAlign=middle;spacingTop=-1;spacingLeft=3;spacingRight=3;rotatable=0;labelPosition=right;points=[];portConstraint=eastwest;strokeColor=inherit;" vertex="1" parent="KRFL9_BNYJd5pwZG4S-C-140">
          <mxGeometry y="400" width="270" height="8" as="geometry" />
        </mxCell>
        <mxCell id="KRFL9_BNYJd5pwZG4S-C-143" value="check_pipe_hwm()&lt;br&gt;get_peer_state()&lt;br&gt;identify_peer()&lt;br&gt;new()&lt;br&gt;rollback()&lt;br&gt;xattach_pipe()&lt;br&gt;xhas_in()&lt;br&gt;xhas_out()&lt;br&gt;xpipe_terminated()&lt;br&gt;xread_activated()&lt;br&gt;xrecv()&lt;br&gt;xsend()&lt;br&gt;xsetsockopt()" style="text;strokeColor=none;fillColor=none;align=left;verticalAlign=top;spacingLeft=4;spacingRight=4;overflow=hidden;rotatable=0;points=[[0,0.5],[1,0.5]];portConstraint=eastwest;whiteSpace=wrap;html=1;" vertex="1" parent="KRFL9_BNYJd5pwZG4S-C-140">
          <mxGeometry y="408" width="270" height="202" as="geometry" />
        </mxCell>
      </root>
    </mxGraphModel>
  </diagram>
</mxfile>
